<mxfile host="app.diagrams.net" modified="2023-04-12T13:35:17.946Z" agent="Mozilla/5.0 (Windows NT 10.0; Win64; x64) AppleWebKit/537.36 (KHTML, like Gecko) Chrome/111.0.0.0 Safari/537.36" etag="l2VlR5p4fVMG6MtI3gG8" version="21.1.7" type="github" pages="2">
  <diagram name="Página-1" id="LRbnNVNP2X4PWwNrP-vT">
    <mxGraphModel dx="1114" dy="616" grid="1" gridSize="10" guides="1" tooltips="1" connect="1" arrows="1" fold="1" page="0" pageScale="1" pageWidth="1920" pageHeight="1200" background="none" math="0" shadow="0">
      <root>
        <mxCell id="0" />
        <mxCell id="1" parent="0" />
        <mxCell id="oviOYFt7pR6-ga45V4re-5" style="edgeStyle=orthogonalEdgeStyle;rounded=0;orthogonalLoop=1;jettySize=auto;html=1;exitX=1;exitY=0.3333333333333333;exitDx=0;exitDy=0;exitPerimeter=0;entryX=0;entryY=0.375;entryDx=0;entryDy=0;entryPerimeter=0;" parent="1" source="oviOYFt7pR6-ga45V4re-1" target="oviOYFt7pR6-ga45V4re-2" edge="1">
          <mxGeometry relative="1" as="geometry" />
        </mxCell>
        <mxCell id="oviOYFt7pR6-ga45V4re-6" style="edgeStyle=orthogonalEdgeStyle;rounded=0;orthogonalLoop=1;jettySize=auto;html=1;exitX=1;exitY=0.3333333333333333;exitDx=0;exitDy=0;exitPerimeter=0;entryX=0;entryY=0.5;entryDx=0;entryDy=0;" parent="1" source="oviOYFt7pR6-ga45V4re-1" target="oviOYFt7pR6-ga45V4re-3" edge="1">
          <mxGeometry relative="1" as="geometry" />
        </mxCell>
        <mxCell id="oviOYFt7pR6-ga45V4re-7" style="edgeStyle=orthogonalEdgeStyle;rounded=0;orthogonalLoop=1;jettySize=auto;html=1;exitX=1;exitY=0.3333333333333333;exitDx=0;exitDy=0;exitPerimeter=0;entryX=0;entryY=0.5;entryDx=0;entryDy=0;" parent="1" source="oviOYFt7pR6-ga45V4re-1" target="oviOYFt7pR6-ga45V4re-4" edge="1">
          <mxGeometry relative="1" as="geometry" />
        </mxCell>
        <mxCell id="oviOYFt7pR6-ga45V4re-10" style="edgeStyle=orthogonalEdgeStyle;rounded=0;orthogonalLoop=1;jettySize=auto;html=1;exitX=1;exitY=0.3333333333333333;exitDx=0;exitDy=0;exitPerimeter=0;entryX=-0.007;entryY=0.4;entryDx=0;entryDy=0;entryPerimeter=0;" parent="1" source="oviOYFt7pR6-ga45V4re-1" target="oviOYFt7pR6-ga45V4re-9" edge="1">
          <mxGeometry relative="1" as="geometry" />
        </mxCell>
        <mxCell id="oviOYFt7pR6-ga45V4re-1" value="Actor" style="shape=umlActor;verticalLabelPosition=bottom;verticalAlign=top;html=1;outlineConnect=0;" parent="1" vertex="1">
          <mxGeometry y="200" width="40" height="90" as="geometry" />
        </mxCell>
        <mxCell id="oviOYFt7pR6-ga45V4re-21" value="" style="edgeStyle=orthogonalEdgeStyle;rounded=0;orthogonalLoop=1;jettySize=auto;html=1;" parent="1" source="oviOYFt7pR6-ga45V4re-2" target="oviOYFt7pR6-ga45V4re-3" edge="1">
          <mxGeometry relative="1" as="geometry" />
        </mxCell>
        <mxCell id="oviOYFt7pR6-ga45V4re-2" value="pesquisar livro" style="ellipse;whiteSpace=wrap;html=1;" parent="1" vertex="1">
          <mxGeometry x="180" y="140" width="150" height="80" as="geometry" />
        </mxCell>
        <mxCell id="oviOYFt7pR6-ga45V4re-22" value="" style="edgeStyle=orthogonalEdgeStyle;rounded=0;orthogonalLoop=1;jettySize=auto;html=1;" parent="1" source="oviOYFt7pR6-ga45V4re-3" target="oviOYFt7pR6-ga45V4re-4" edge="1">
          <mxGeometry relative="1" as="geometry" />
        </mxCell>
        <mxCell id="oviOYFt7pR6-ga45V4re-3" value="reservar livro" style="ellipse;whiteSpace=wrap;html=1;" parent="1" vertex="1">
          <mxGeometry x="180" y="270" width="150" height="80" as="geometry" />
        </mxCell>
        <mxCell id="oviOYFt7pR6-ga45V4re-4" value="emprestar livro" style="ellipse;whiteSpace=wrap;html=1;" parent="1" vertex="1">
          <mxGeometry x="180" y="390" width="150" height="80" as="geometry" />
        </mxCell>
        <mxCell id="oviOYFt7pR6-ga45V4re-20" value="" style="edgeStyle=orthogonalEdgeStyle;rounded=0;orthogonalLoop=1;jettySize=auto;html=1;" parent="1" source="oviOYFt7pR6-ga45V4re-9" target="oviOYFt7pR6-ga45V4re-2" edge="1">
          <mxGeometry relative="1" as="geometry" />
        </mxCell>
        <mxCell id="oviOYFt7pR6-ga45V4re-9" value="Acesso ao site" style="ellipse;whiteSpace=wrap;html=1;" parent="1" vertex="1">
          <mxGeometry x="180" y="30" width="150" height="80" as="geometry" />
        </mxCell>
        <mxCell id="oviOYFt7pR6-ga45V4re-27" style="edgeStyle=orthogonalEdgeStyle;rounded=0;orthogonalLoop=1;jettySize=auto;html=1;entryX=0;entryY=0.5;entryDx=0;entryDy=0;" parent="1" target="oviOYFt7pR6-ga45V4re-13" edge="1">
          <mxGeometry relative="1" as="geometry">
            <mxPoint x="410" y="258" as="sourcePoint" />
          </mxGeometry>
        </mxCell>
        <mxCell id="oviOYFt7pR6-ga45V4re-28" style="edgeStyle=orthogonalEdgeStyle;rounded=0;orthogonalLoop=1;jettySize=auto;html=1;exitX=1;exitY=0.3333333333333333;exitDx=0;exitDy=0;exitPerimeter=0;entryX=0;entryY=0.5;entryDx=0;entryDy=0;" parent="1" source="oviOYFt7pR6-ga45V4re-11" target="oviOYFt7pR6-ga45V4re-12" edge="1">
          <mxGeometry relative="1" as="geometry" />
        </mxCell>
        <mxCell id="oviOYFt7pR6-ga45V4re-29" style="edgeStyle=orthogonalEdgeStyle;rounded=0;orthogonalLoop=1;jettySize=auto;html=1;exitX=1;exitY=0.3333333333333333;exitDx=0;exitDy=0;exitPerimeter=0;entryX=0;entryY=0.5;entryDx=0;entryDy=0;" parent="1" source="oviOYFt7pR6-ga45V4re-11" target="oviOYFt7pR6-ga45V4re-16" edge="1">
          <mxGeometry relative="1" as="geometry" />
        </mxCell>
        <mxCell id="oviOYFt7pR6-ga45V4re-30" style="edgeStyle=orthogonalEdgeStyle;rounded=0;orthogonalLoop=1;jettySize=auto;html=1;exitX=1;exitY=0.3333333333333333;exitDx=0;exitDy=0;exitPerimeter=0;entryX=0;entryY=0.5;entryDx=0;entryDy=0;" parent="1" source="oviOYFt7pR6-ga45V4re-11" target="oviOYFt7pR6-ga45V4re-15" edge="1">
          <mxGeometry relative="1" as="geometry" />
        </mxCell>
        <mxCell id="oviOYFt7pR6-ga45V4re-11" value="Actor" style="shape=umlActor;verticalLabelPosition=bottom;verticalAlign=top;html=1;outlineConnect=0;" parent="1" vertex="1">
          <mxGeometry x="360" y="225" width="50" height="100" as="geometry" />
        </mxCell>
        <mxCell id="oviOYFt7pR6-ga45V4re-36" value="" style="edgeStyle=orthogonalEdgeStyle;rounded=0;orthogonalLoop=1;jettySize=auto;html=1;" parent="1" source="oviOYFt7pR6-ga45V4re-12" target="oviOYFt7pR6-ga45V4re-16" edge="1">
          <mxGeometry relative="1" as="geometry" />
        </mxCell>
        <mxCell id="oviOYFt7pR6-ga45V4re-12" value="login" style="ellipse;whiteSpace=wrap;html=1;" parent="1" vertex="1">
          <mxGeometry x="500" y="155" width="120" height="80" as="geometry" />
        </mxCell>
        <mxCell id="oviOYFt7pR6-ga45V4re-35" value="" style="edgeStyle=orthogonalEdgeStyle;rounded=0;orthogonalLoop=1;jettySize=auto;html=1;" parent="1" source="oviOYFt7pR6-ga45V4re-13" target="oviOYFt7pR6-ga45V4re-12" edge="1">
          <mxGeometry relative="1" as="geometry" />
        </mxCell>
        <mxCell id="oviOYFt7pR6-ga45V4re-13" value="acesso ao site" style="ellipse;whiteSpace=wrap;html=1;" parent="1" vertex="1">
          <mxGeometry x="500" y="45" width="120" height="80" as="geometry" />
        </mxCell>
        <mxCell id="oviOYFt7pR6-ga45V4re-26" value="" style="edgeStyle=orthogonalEdgeStyle;rounded=0;orthogonalLoop=1;jettySize=auto;html=1;" parent="1" source="oviOYFt7pR6-ga45V4re-14" target="oviOYFt7pR6-ga45V4re-25" edge="1">
          <mxGeometry relative="1" as="geometry" />
        </mxCell>
        <mxCell id="oviOYFt7pR6-ga45V4re-34" value="" style="edgeStyle=orthogonalEdgeStyle;rounded=0;orthogonalLoop=1;jettySize=auto;html=1;" parent="1" source="oviOYFt7pR6-ga45V4re-14" target="oviOYFt7pR6-ga45V4re-33" edge="1">
          <mxGeometry relative="1" as="geometry" />
        </mxCell>
        <object label="funcionario" id="oviOYFt7pR6-ga45V4re-14">
          <mxCell style="shape=umlActor;verticalLabelPosition=bottom;verticalAlign=top;html=1;outlineConnect=0;" parent="1" vertex="1">
            <mxGeometry x="1060" y="225" width="50" height="100" as="geometry" />
          </mxCell>
        </object>
        <mxCell id="oviOYFt7pR6-ga45V4re-32" style="edgeStyle=orthogonalEdgeStyle;rounded=0;orthogonalLoop=1;jettySize=auto;html=1;exitX=1;exitY=0.5;exitDx=0;exitDy=0;entryX=0.5;entryY=0;entryDx=0;entryDy=0;" parent="1" source="oviOYFt7pR6-ga45V4re-15" target="oviOYFt7pR6-ga45V4re-25" edge="1">
          <mxGeometry relative="1" as="geometry" />
        </mxCell>
        <mxCell id="oviOYFt7pR6-ga45V4re-15" value="acessórios" style="ellipse;whiteSpace=wrap;html=1;" parent="1" vertex="1">
          <mxGeometry x="500" y="395" width="120" height="80" as="geometry" />
        </mxCell>
        <mxCell id="oviOYFt7pR6-ga45V4re-31" style="edgeStyle=orthogonalEdgeStyle;rounded=0;orthogonalLoop=1;jettySize=auto;html=1;exitX=1;exitY=0.5;exitDx=0;exitDy=0;entryX=0;entryY=0.5;entryDx=0;entryDy=0;" parent="1" source="oviOYFt7pR6-ga45V4re-16" target="oviOYFt7pR6-ga45V4re-25" edge="1">
          <mxGeometry relative="1" as="geometry" />
        </mxCell>
        <mxCell id="oviOYFt7pR6-ga45V4re-37" value="" style="edgeStyle=orthogonalEdgeStyle;rounded=0;orthogonalLoop=1;jettySize=auto;html=1;" parent="1" source="oviOYFt7pR6-ga45V4re-16" target="oviOYFt7pR6-ga45V4re-15" edge="1">
          <mxGeometry relative="1" as="geometry" />
        </mxCell>
        <mxCell id="oviOYFt7pR6-ga45V4re-16" value="produtos" style="ellipse;whiteSpace=wrap;html=1;" parent="1" vertex="1">
          <mxGeometry x="500" y="275" width="120" height="80" as="geometry" />
        </mxCell>
        <mxCell id="oviOYFt7pR6-ga45V4re-38" value="" style="edgeStyle=orthogonalEdgeStyle;rounded=0;orthogonalLoop=1;jettySize=auto;html=1;" parent="1" source="oviOYFt7pR6-ga45V4re-25" target="oviOYFt7pR6-ga45V4re-33" edge="1">
          <mxGeometry relative="1" as="geometry" />
        </mxCell>
        <mxCell id="oviOYFt7pR6-ga45V4re-25" value="vender produtos" style="ellipse;whiteSpace=wrap;html=1;verticalAlign=top;" parent="1" vertex="1">
          <mxGeometry x="800" y="155" width="135" height="80" as="geometry" />
        </mxCell>
        <mxCell id="oviOYFt7pR6-ga45V4re-33" value="finalizar compra" style="ellipse;whiteSpace=wrap;html=1;verticalAlign=top;" parent="1" vertex="1">
          <mxGeometry x="808.75" y="295" width="117.5" height="80" as="geometry" />
        </mxCell>
        <mxCell id="oviOYFt7pR6-ga45V4re-43" value="" style="swimlane;startSize=0;" parent="1" vertex="1">
          <mxGeometry x="420" y="15" width="630" height="470" as="geometry" />
        </mxCell>
        <mxCell id="oviOYFt7pR6-ga45V4re-44" value="" style="swimlane;startSize=0;" parent="1" vertex="1">
          <mxGeometry x="40" y="20" width="310" height="460" as="geometry" />
        </mxCell>
        <mxCell id="oviOYFt7pR6-ga45V4re-45" value="" style="swimlane;startSize=0;" parent="1" vertex="1">
          <mxGeometry x="1180" y="20" width="640" height="470" as="geometry" />
        </mxCell>
        <mxCell id="oviOYFt7pR6-ga45V4re-47" value="" style="edgeStyle=orthogonalEdgeStyle;rounded=0;orthogonalLoop=1;jettySize=auto;html=1;" parent="oviOYFt7pR6-ga45V4re-45" source="oviOYFt7pR6-ga45V4re-40" target="oviOYFt7pR6-ga45V4re-46" edge="1">
          <mxGeometry relative="1" as="geometry" />
        </mxCell>
        <mxCell id="oviOYFt7pR6-ga45V4re-40" value="acesso ao site" style="ellipse;whiteSpace=wrap;html=1;" parent="oviOYFt7pR6-ga45V4re-45" vertex="1">
          <mxGeometry x="120" y="10" width="120" height="80" as="geometry" />
        </mxCell>
        <mxCell id="oviOYFt7pR6-ga45V4re-49" value="" style="edgeStyle=orthogonalEdgeStyle;rounded=0;orthogonalLoop=1;jettySize=auto;html=1;" parent="oviOYFt7pR6-ga45V4re-45" source="oviOYFt7pR6-ga45V4re-46" target="oviOYFt7pR6-ga45V4re-48" edge="1">
          <mxGeometry relative="1" as="geometry" />
        </mxCell>
        <mxCell id="oviOYFt7pR6-ga45V4re-46" value="cadastro" style="ellipse;whiteSpace=wrap;html=1;" parent="oviOYFt7pR6-ga45V4re-45" vertex="1">
          <mxGeometry x="120" y="120" width="120" height="80" as="geometry" />
        </mxCell>
        <mxCell id="oviOYFt7pR6-ga45V4re-55" value="" style="edgeStyle=orthogonalEdgeStyle;rounded=0;orthogonalLoop=1;jettySize=auto;html=1;" parent="oviOYFt7pR6-ga45V4re-45" source="oviOYFt7pR6-ga45V4re-48" target="oviOYFt7pR6-ga45V4re-54" edge="1">
          <mxGeometry relative="1" as="geometry" />
        </mxCell>
        <mxCell id="oviOYFt7pR6-ga45V4re-48" value="inscrição online" style="ellipse;whiteSpace=wrap;html=1;" parent="oviOYFt7pR6-ga45V4re-45" vertex="1">
          <mxGeometry x="120" y="230" width="120" height="80" as="geometry" />
        </mxCell>
        <mxCell id="oviOYFt7pR6-ga45V4re-64" style="edgeStyle=orthogonalEdgeStyle;rounded=0;orthogonalLoop=1;jettySize=auto;html=1;exitX=0;exitY=0.3333333333333333;exitDx=0;exitDy=0;exitPerimeter=0;entryX=1;entryY=0.5;entryDx=0;entryDy=0;" parent="oviOYFt7pR6-ga45V4re-45" source="oviOYFt7pR6-ga45V4re-53" target="oviOYFt7pR6-ga45V4re-63" edge="1">
          <mxGeometry relative="1" as="geometry" />
        </mxCell>
        <mxCell id="oviOYFt7pR6-ga45V4re-53" value="adm" style="shape=umlActor;verticalLabelPosition=bottom;verticalAlign=top;outlineConnect=0;align=center;" parent="oviOYFt7pR6-ga45V4re-45" vertex="1">
          <mxGeometry x="730" y="270" width="45" height="80" as="geometry" />
        </mxCell>
        <mxCell id="oviOYFt7pR6-ga45V4re-61" value="" style="edgeStyle=orthogonalEdgeStyle;rounded=0;orthogonalLoop=1;jettySize=auto;html=1;" parent="oviOYFt7pR6-ga45V4re-45" source="oviOYFt7pR6-ga45V4re-54" target="oviOYFt7pR6-ga45V4re-60" edge="1">
          <mxGeometry relative="1" as="geometry" />
        </mxCell>
        <mxCell id="oviOYFt7pR6-ga45V4re-54" value="gerar matricula" style="ellipse;whiteSpace=wrap;html=1;align=center;" parent="oviOYFt7pR6-ga45V4re-45" vertex="1">
          <mxGeometry x="292.5" y="230" width="120" height="80" as="geometry" />
        </mxCell>
        <mxCell id="oviOYFt7pR6-ga45V4re-58" style="edgeStyle=orthogonalEdgeStyle;rounded=0;orthogonalLoop=1;jettySize=auto;html=1;exitX=0;exitY=0.3333333333333333;exitDx=0;exitDy=0;exitPerimeter=0;entryX=1;entryY=0.5;entryDx=0;entryDy=0;" parent="oviOYFt7pR6-ga45V4re-45" source="oviOYFt7pR6-ga45V4re-56" target="oviOYFt7pR6-ga45V4re-57" edge="1">
          <mxGeometry relative="1" as="geometry" />
        </mxCell>
        <mxCell id="oviOYFt7pR6-ga45V4re-56" value="prof" style="shape=umlActor;verticalLabelPosition=bottom;verticalAlign=top;html=1;outlineConnect=0;" parent="oviOYFt7pR6-ga45V4re-45" vertex="1">
          <mxGeometry x="730" y="120" width="50" height="90" as="geometry" />
        </mxCell>
        <mxCell id="oviOYFt7pR6-ga45V4re-62" style="edgeStyle=orthogonalEdgeStyle;rounded=0;orthogonalLoop=1;jettySize=auto;html=1;exitX=0;exitY=0.5;exitDx=0;exitDy=0;entryX=1;entryY=0.5;entryDx=0;entryDy=0;" parent="oviOYFt7pR6-ga45V4re-45" source="oviOYFt7pR6-ga45V4re-57" target="oviOYFt7pR6-ga45V4re-60" edge="1">
          <mxGeometry relative="1" as="geometry" />
        </mxCell>
        <mxCell id="oviOYFt7pR6-ga45V4re-57" value="gerenciar relatorios academicos" style="ellipse;whiteSpace=wrap;html=1;" parent="oviOYFt7pR6-ga45V4re-45" vertex="1">
          <mxGeometry x="490" y="125" width="120" height="80" as="geometry" />
        </mxCell>
        <mxCell id="oviOYFt7pR6-ga45V4re-60" value="gerar relatorio academico" style="ellipse;whiteSpace=wrap;html=1;align=center;" parent="oviOYFt7pR6-ga45V4re-45" vertex="1">
          <mxGeometry x="292.5" y="130" width="120" height="80" as="geometry" />
        </mxCell>
        <mxCell id="oviOYFt7pR6-ga45V4re-65" style="edgeStyle=orthogonalEdgeStyle;rounded=0;orthogonalLoop=1;jettySize=auto;html=1;exitX=0;exitY=0.5;exitDx=0;exitDy=0;entryX=1;entryY=0.5;entryDx=0;entryDy=0;" parent="oviOYFt7pR6-ga45V4re-45" source="oviOYFt7pR6-ga45V4re-63" target="oviOYFt7pR6-ga45V4re-54" edge="1">
          <mxGeometry relative="1" as="geometry" />
        </mxCell>
        <mxCell id="oviOYFt7pR6-ga45V4re-63" value="gerenciar matricula" style="ellipse;whiteSpace=wrap;html=1;" parent="oviOYFt7pR6-ga45V4re-45" vertex="1">
          <mxGeometry x="500" y="230" width="120" height="80" as="geometry" />
        </mxCell>
        <mxCell id="oviOYFt7pR6-ga45V4re-82" style="edgeStyle=orthogonalEdgeStyle;rounded=0;orthogonalLoop=1;jettySize=auto;html=1;exitX=1;exitY=0.3333333333333333;exitDx=0;exitDy=0;exitPerimeter=0;entryX=0;entryY=0.5;entryDx=0;entryDy=0;" parent="1" source="oviOYFt7pR6-ga45V4re-66" target="oviOYFt7pR6-ga45V4re-68" edge="1">
          <mxGeometry relative="1" as="geometry" />
        </mxCell>
        <mxCell id="oviOYFt7pR6-ga45V4re-83" style="edgeStyle=orthogonalEdgeStyle;rounded=0;orthogonalLoop=1;jettySize=auto;html=1;exitX=1;exitY=0.3333333333333333;exitDx=0;exitDy=0;exitPerimeter=0;entryX=0;entryY=0.5;entryDx=0;entryDy=0;" parent="1" source="oviOYFt7pR6-ga45V4re-66" target="oviOYFt7pR6-ga45V4re-69" edge="1">
          <mxGeometry relative="1" as="geometry" />
        </mxCell>
        <mxCell id="oviOYFt7pR6-ga45V4re-84" style="edgeStyle=orthogonalEdgeStyle;rounded=0;orthogonalLoop=1;jettySize=auto;html=1;exitX=1;exitY=0.3333333333333333;exitDx=0;exitDy=0;exitPerimeter=0;entryX=0;entryY=0.5;entryDx=0;entryDy=0;" parent="1" source="oviOYFt7pR6-ga45V4re-66" target="oviOYFt7pR6-ga45V4re-71" edge="1">
          <mxGeometry relative="1" as="geometry" />
        </mxCell>
        <mxCell id="oviOYFt7pR6-ga45V4re-85" style="edgeStyle=orthogonalEdgeStyle;rounded=0;orthogonalLoop=1;jettySize=auto;html=1;exitX=1;exitY=0.3333333333333333;exitDx=0;exitDy=0;exitPerimeter=0;entryX=0;entryY=0.5;entryDx=0;entryDy=0;" parent="1" source="oviOYFt7pR6-ga45V4re-66" target="oviOYFt7pR6-ga45V4re-73" edge="1">
          <mxGeometry relative="1" as="geometry" />
        </mxCell>
        <mxCell id="oviOYFt7pR6-ga45V4re-66" value="Banco" style="shape=umlActor;verticalLabelPosition=bottom;verticalAlign=top;html=1;outlineConnect=0;" parent="1" vertex="1">
          <mxGeometry x="20" y="650" width="30" height="60" as="geometry" />
        </mxCell>
        <mxCell id="oviOYFt7pR6-ga45V4re-67" value="" style="swimlane;startSize=0;" parent="1" vertex="1">
          <mxGeometry x="60" y="510" width="380" height="470" as="geometry" />
        </mxCell>
        <mxCell id="oviOYFt7pR6-ga45V4re-70" value="" style="edgeStyle=orthogonalEdgeStyle;rounded=0;orthogonalLoop=1;jettySize=auto;html=1;" parent="oviOYFt7pR6-ga45V4re-67" source="oviOYFt7pR6-ga45V4re-68" target="oviOYFt7pR6-ga45V4re-69" edge="1">
          <mxGeometry relative="1" as="geometry" />
        </mxCell>
        <mxCell id="oviOYFt7pR6-ga45V4re-68" value="acesso ao aplicativo do banco" style="ellipse;whiteSpace=wrap;html=1;" parent="oviOYFt7pR6-ga45V4re-67" vertex="1">
          <mxGeometry x="70" y="10" width="120" height="80" as="geometry" />
        </mxCell>
        <mxCell id="oviOYFt7pR6-ga45V4re-72" value="" style="edgeStyle=orthogonalEdgeStyle;rounded=0;orthogonalLoop=1;jettySize=auto;html=1;" parent="oviOYFt7pR6-ga45V4re-67" source="oviOYFt7pR6-ga45V4re-69" target="oviOYFt7pR6-ga45V4re-71" edge="1">
          <mxGeometry relative="1" as="geometry" />
        </mxCell>
        <mxCell id="oviOYFt7pR6-ga45V4re-69" value="login" style="ellipse;whiteSpace=wrap;html=1;" parent="oviOYFt7pR6-ga45V4re-67" vertex="1">
          <mxGeometry x="70" y="120" width="120" height="80" as="geometry" />
        </mxCell>
        <mxCell id="oviOYFt7pR6-ga45V4re-74" value="" style="edgeStyle=orthogonalEdgeStyle;rounded=0;orthogonalLoop=1;jettySize=auto;html=1;" parent="oviOYFt7pR6-ga45V4re-67" source="oviOYFt7pR6-ga45V4re-71" target="oviOYFt7pR6-ga45V4re-73" edge="1">
          <mxGeometry relative="1" as="geometry" />
        </mxCell>
        <mxCell id="oviOYFt7pR6-ga45V4re-71" value="gerenciar conta" style="ellipse;whiteSpace=wrap;html=1;" parent="oviOYFt7pR6-ga45V4re-67" vertex="1">
          <mxGeometry x="70" y="230" width="120" height="80" as="geometry" />
        </mxCell>
        <mxCell id="oviOYFt7pR6-ga45V4re-81" value="" style="edgeStyle=orthogonalEdgeStyle;rounded=0;orthogonalLoop=1;jettySize=auto;html=1;" parent="oviOYFt7pR6-ga45V4re-67" source="oviOYFt7pR6-ga45V4re-73" target="oviOYFt7pR6-ga45V4re-80" edge="1">
          <mxGeometry relative="1" as="geometry" />
        </mxCell>
        <mxCell id="oviOYFt7pR6-ga45V4re-73" value="transações financeiras" style="ellipse;whiteSpace=wrap;html=1;" parent="oviOYFt7pR6-ga45V4re-67" vertex="1">
          <mxGeometry x="70" y="330" width="120" height="80" as="geometry" />
        </mxCell>
        <mxCell id="oviOYFt7pR6-ga45V4re-78" value="depósitos" style="ellipse;whiteSpace=wrap;html=1;" parent="oviOYFt7pR6-ga45V4re-67" vertex="1">
          <mxGeometry x="250" y="270" width="120" height="80" as="geometry" />
        </mxCell>
        <mxCell id="oviOYFt7pR6-ga45V4re-79" value="" style="edgeStyle=orthogonalEdgeStyle;rounded=0;orthogonalLoop=1;jettySize=auto;html=1;" parent="oviOYFt7pR6-ga45V4re-67" source="oviOYFt7pR6-ga45V4re-73" target="oviOYFt7pR6-ga45V4re-78" edge="1">
          <mxGeometry relative="1" as="geometry" />
        </mxCell>
        <mxCell id="oviOYFt7pR6-ga45V4re-80" value="Saques" style="ellipse;whiteSpace=wrap;html=1;" parent="oviOYFt7pR6-ga45V4re-67" vertex="1">
          <mxGeometry x="250" y="380" width="120" height="80" as="geometry" />
        </mxCell>
        <mxCell id="oviOYFt7pR6-ga45V4re-39" value="Actor" style="shape=umlActor;verticalLabelPosition=bottom;verticalAlign=top;html=1;outlineConnect=0;" parent="1" vertex="1">
          <mxGeometry x="1120" y="160" width="50" height="100" as="geometry" />
        </mxCell>
        <mxCell id="oviOYFt7pR6-ga45V4re-50" style="edgeStyle=orthogonalEdgeStyle;rounded=0;orthogonalLoop=1;jettySize=auto;html=1;exitX=1;exitY=0.3333333333333333;exitDx=0;exitDy=0;exitPerimeter=0;entryX=0;entryY=0.5;entryDx=0;entryDy=0;" parent="1" source="oviOYFt7pR6-ga45V4re-39" target="oviOYFt7pR6-ga45V4re-40" edge="1">
          <mxGeometry relative="1" as="geometry" />
        </mxCell>
        <mxCell id="oviOYFt7pR6-ga45V4re-51" style="edgeStyle=orthogonalEdgeStyle;rounded=0;orthogonalLoop=1;jettySize=auto;html=1;exitX=1;exitY=0.3333333333333333;exitDx=0;exitDy=0;exitPerimeter=0;entryX=0;entryY=0.5;entryDx=0;entryDy=0;" parent="1" source="oviOYFt7pR6-ga45V4re-39" target="oviOYFt7pR6-ga45V4re-46" edge="1">
          <mxGeometry relative="1" as="geometry" />
        </mxCell>
        <mxCell id="oviOYFt7pR6-ga45V4re-52" style="edgeStyle=orthogonalEdgeStyle;rounded=0;orthogonalLoop=1;jettySize=auto;html=1;exitX=1;exitY=0.3333333333333333;exitDx=0;exitDy=0;exitPerimeter=0;entryX=0;entryY=0.5;entryDx=0;entryDy=0;" parent="1" source="oviOYFt7pR6-ga45V4re-39" target="oviOYFt7pR6-ga45V4re-48" edge="1">
          <mxGeometry relative="1" as="geometry" />
        </mxCell>
        <mxCell id="JlkL9IGdBqdj9I0cIEox-1" style="edgeStyle=orthogonalEdgeStyle;rounded=0;orthogonalLoop=1;jettySize=auto;html=1;exitX=1;exitY=0.3333333333333333;exitDx=0;exitDy=0;exitPerimeter=0;entryX=0;entryY=0.5;entryDx=0;entryDy=0;" parent="1" source="oviOYFt7pR6-ga45V4re-87" target="oviOYFt7pR6-ga45V4re-90" edge="1">
          <mxGeometry relative="1" as="geometry" />
        </mxCell>
        <mxCell id="oviOYFt7pR6-ga45V4re-87" value="Actor" style="shape=umlActor;verticalLabelPosition=bottom;verticalAlign=top;html=1;outlineConnect=0;" parent="1" vertex="1">
          <mxGeometry x="460" y="710" width="30" height="60" as="geometry" />
        </mxCell>
        <mxCell id="oviOYFt7pR6-ga45V4re-88" value="" style="swimlane;startSize=0;" parent="1" vertex="1">
          <mxGeometry x="520" y="510" width="490" height="470" as="geometry" />
        </mxCell>
        <mxCell id="JlkL9IGdBqdj9I0cIEox-2" value="" style="edgeStyle=orthogonalEdgeStyle;rounded=0;orthogonalLoop=1;jettySize=auto;html=1;" parent="oviOYFt7pR6-ga45V4re-88" source="oviOYFt7pR6-ga45V4re-90" target="oviOYFt7pR6-ga45V4re-89" edge="1">
          <mxGeometry relative="1" as="geometry" />
        </mxCell>
        <mxCell id="oviOYFt7pR6-ga45V4re-90" value="acesso ao aplicativo" style="ellipse;whiteSpace=wrap;html=1;" parent="oviOYFt7pR6-ga45V4re-88" vertex="1">
          <mxGeometry x="10" y="20" width="120" height="80" as="geometry" />
        </mxCell>
        <mxCell id="dRWtWInUFrxZpv6eShJe-2" value="" style="edgeStyle=none;curved=1;rounded=0;orthogonalLoop=1;jettySize=auto;html=1;fontSize=12;startSize=8;endSize=8;" parent="oviOYFt7pR6-ga45V4re-88" source="oviOYFt7pR6-ga45V4re-89" target="dRWtWInUFrxZpv6eShJe-1" edge="1">
          <mxGeometry relative="1" as="geometry" />
        </mxCell>
        <mxCell id="oviOYFt7pR6-ga45V4re-89" value="login" style="ellipse;whiteSpace=wrap;html=1;" parent="oviOYFt7pR6-ga45V4re-88" vertex="1">
          <mxGeometry x="10" y="130" width="120" height="80" as="geometry" />
        </mxCell>
        <mxCell id="dRWtWInUFrxZpv6eShJe-4" value="" style="edgeStyle=none;curved=1;rounded=0;orthogonalLoop=1;jettySize=auto;html=1;fontSize=12;startSize=8;endSize=8;" parent="oviOYFt7pR6-ga45V4re-88" source="dRWtWInUFrxZpv6eShJe-1" target="dRWtWInUFrxZpv6eShJe-3" edge="1">
          <mxGeometry relative="1" as="geometry" />
        </mxCell>
        <mxCell id="dRWtWInUFrxZpv6eShJe-1" value="criar tarefa" style="ellipse;whiteSpace=wrap;html=1;fontSize=16;" parent="oviOYFt7pR6-ga45V4re-88" vertex="1">
          <mxGeometry x="10" y="240" width="120" height="80" as="geometry" />
        </mxCell>
        <mxCell id="dRWtWInUFrxZpv6eShJe-6" value="" style="edgeStyle=none;curved=1;rounded=0;orthogonalLoop=1;jettySize=auto;html=1;fontSize=12;startSize=8;endSize=8;" parent="oviOYFt7pR6-ga45V4re-88" source="dRWtWInUFrxZpv6eShJe-3" target="dRWtWInUFrxZpv6eShJe-5" edge="1">
          <mxGeometry relative="1" as="geometry" />
        </mxCell>
        <mxCell id="dRWtWInUFrxZpv6eShJe-3" value="atribuir tarefa" style="ellipse;whiteSpace=wrap;html=1;fontSize=16;" parent="oviOYFt7pR6-ga45V4re-88" vertex="1">
          <mxGeometry x="190" y="240" width="120" height="80" as="geometry" />
        </mxCell>
        <mxCell id="dRWtWInUFrxZpv6eShJe-5" value="acompanhar tarefa" style="ellipse;whiteSpace=wrap;html=1;fontSize=16;" parent="oviOYFt7pR6-ga45V4re-88" vertex="1">
          <mxGeometry x="360" y="240" width="120" height="80" as="geometry" />
        </mxCell>
        <mxCell id="dRWtWInUFrxZpv6eShJe-7" value="" style="swimlane;startSize=0;fontSize=16;" parent="1" vertex="1">
          <mxGeometry x="1110" y="530" width="400" height="420" as="geometry" />
        </mxCell>
        <mxCell id="dRWtWInUFrxZpv6eShJe-12" value="" style="edgeStyle=none;curved=1;rounded=0;orthogonalLoop=1;jettySize=auto;html=1;fontSize=12;startSize=8;endSize=8;" parent="dRWtWInUFrxZpv6eShJe-7" source="dRWtWInUFrxZpv6eShJe-9" target="dRWtWInUFrxZpv6eShJe-11" edge="1">
          <mxGeometry relative="1" as="geometry" />
        </mxCell>
        <mxCell id="dRWtWInUFrxZpv6eShJe-9" value="acessar o sistema" style="ellipse;whiteSpace=wrap;html=1;fontSize=16;" parent="dRWtWInUFrxZpv6eShJe-7" vertex="1">
          <mxGeometry x="10" y="10" width="120" height="80" as="geometry" />
        </mxCell>
        <mxCell id="dRWtWInUFrxZpv6eShJe-18" value="" style="edgeStyle=none;curved=1;rounded=0;orthogonalLoop=1;jettySize=auto;html=1;fontSize=12;startSize=8;endSize=8;" parent="dRWtWInUFrxZpv6eShJe-7" source="dRWtWInUFrxZpv6eShJe-11" target="dRWtWInUFrxZpv6eShJe-17" edge="1">
          <mxGeometry relative="1" as="geometry" />
        </mxCell>
        <mxCell id="dRWtWInUFrxZpv6eShJe-11" value="localizar onibus" style="ellipse;whiteSpace=wrap;html=1;fontSize=16;" parent="dRWtWInUFrxZpv6eShJe-7" vertex="1">
          <mxGeometry x="10" y="140" width="120" height="80" as="geometry" />
        </mxCell>
        <mxCell id="dRWtWInUFrxZpv6eShJe-19" style="edgeStyle=none;curved=1;rounded=0;orthogonalLoop=1;jettySize=auto;html=1;exitX=0;exitY=0.5;exitDx=0;exitDy=0;entryX=1;entryY=0;entryDx=0;entryDy=0;fontSize=12;startSize=8;endSize=8;" parent="dRWtWInUFrxZpv6eShJe-7" source="dRWtWInUFrxZpv6eShJe-14" target="dRWtWInUFrxZpv6eShJe-17" edge="1">
          <mxGeometry relative="1" as="geometry" />
        </mxCell>
        <mxCell id="dRWtWInUFrxZpv6eShJe-14" value="mandar localização em tempo real" style="ellipse;whiteSpace=wrap;html=1;fontSize=16;" parent="dRWtWInUFrxZpv6eShJe-7" vertex="1">
          <mxGeometry x="260" y="145" width="120" height="70" as="geometry" />
        </mxCell>
        <mxCell id="dRWtWInUFrxZpv6eShJe-17" value="mostrar rotas" style="ellipse;whiteSpace=wrap;html=1;fontSize=16;" parent="dRWtWInUFrxZpv6eShJe-7" vertex="1">
          <mxGeometry x="130" y="240" width="120" height="80" as="geometry" />
        </mxCell>
        <mxCell id="dRWtWInUFrxZpv6eShJe-10" style="edgeStyle=none;curved=1;rounded=0;orthogonalLoop=1;jettySize=auto;html=1;exitX=1;exitY=0.3333333333333333;exitDx=0;exitDy=0;exitPerimeter=0;entryX=0;entryY=0.5;entryDx=0;entryDy=0;fontSize=12;startSize=8;endSize=8;" parent="1" source="dRWtWInUFrxZpv6eShJe-8" target="dRWtWInUFrxZpv6eShJe-9" edge="1">
          <mxGeometry relative="1" as="geometry" />
        </mxCell>
        <mxCell id="dRWtWInUFrxZpv6eShJe-8" value="cliente" style="shape=umlActor;verticalLabelPosition=bottom;verticalAlign=top;html=1;outlineConnect=0;fontSize=16;" parent="1" vertex="1">
          <mxGeometry x="1050" y="710" width="30" height="60" as="geometry" />
        </mxCell>
        <mxCell id="dRWtWInUFrxZpv6eShJe-15" style="edgeStyle=none;curved=1;rounded=0;orthogonalLoop=1;jettySize=auto;html=1;exitX=0;exitY=0.3333333333333333;exitDx=0;exitDy=0;exitPerimeter=0;entryX=1;entryY=0.5;entryDx=0;entryDy=0;fontSize=12;startSize=8;endSize=8;" parent="1" source="dRWtWInUFrxZpv6eShJe-13" target="dRWtWInUFrxZpv6eShJe-14" edge="1">
          <mxGeometry relative="1" as="geometry" />
        </mxCell>
        <mxCell id="dRWtWInUFrxZpv6eShJe-13" value="sistema&lt;br&gt;" style="shape=umlActor;verticalLabelPosition=bottom;verticalAlign=top;html=1;outlineConnect=0;fontSize=16;" parent="1" vertex="1">
          <mxGeometry x="1550" y="710" width="30" height="60" as="geometry" />
        </mxCell>
        <mxCell id="dRWtWInUFrxZpv6eShJe-20" value="" style="swimlane;startSize=0;fontSize=16;" parent="1" vertex="1">
          <mxGeometry x="1700" y="520" width="500" height="420" as="geometry" />
        </mxCell>
        <mxCell id="dRWtWInUFrxZpv6eShJe-25" value="" style="edgeStyle=none;curved=1;rounded=0;orthogonalLoop=1;jettySize=auto;html=1;fontSize=12;startSize=8;endSize=8;" parent="dRWtWInUFrxZpv6eShJe-20" source="dRWtWInUFrxZpv6eShJe-22" target="dRWtWInUFrxZpv6eShJe-24" edge="1">
          <mxGeometry relative="1" as="geometry" />
        </mxCell>
        <mxCell id="dRWtWInUFrxZpv6eShJe-22" value="acesso ao app" style="ellipse;whiteSpace=wrap;html=1;fontSize=16;" parent="dRWtWInUFrxZpv6eShJe-20" vertex="1">
          <mxGeometry x="20" y="20" width="120" height="80" as="geometry" />
        </mxCell>
        <mxCell id="dRWtWInUFrxZpv6eShJe-27" value="" style="edgeStyle=none;curved=1;rounded=0;orthogonalLoop=1;jettySize=auto;html=1;fontSize=12;startSize=8;endSize=8;" parent="dRWtWInUFrxZpv6eShJe-20" source="dRWtWInUFrxZpv6eShJe-24" target="dRWtWInUFrxZpv6eShJe-26" edge="1">
          <mxGeometry relative="1" as="geometry" />
        </mxCell>
        <mxCell id="dRWtWInUFrxZpv6eShJe-24" value="fazer checkin" style="ellipse;whiteSpace=wrap;html=1;fontSize=16;" parent="dRWtWInUFrxZpv6eShJe-20" vertex="1">
          <mxGeometry x="20" y="120" width="120" height="80" as="geometry" />
        </mxCell>
        <mxCell id="dRWtWInUFrxZpv6eShJe-29" value="" style="edgeStyle=none;curved=1;rounded=0;orthogonalLoop=1;jettySize=auto;html=1;fontSize=12;startSize=8;endSize=8;" parent="dRWtWInUFrxZpv6eShJe-20" source="dRWtWInUFrxZpv6eShJe-26" target="dRWtWInUFrxZpv6eShJe-28" edge="1">
          <mxGeometry relative="1" as="geometry" />
        </mxCell>
        <mxCell id="dRWtWInUFrxZpv6eShJe-26" value="fazer reservas" style="ellipse;whiteSpace=wrap;html=1;fontSize=16;" parent="dRWtWInUFrxZpv6eShJe-20" vertex="1">
          <mxGeometry x="20" y="230" width="120" height="80" as="geometry" />
        </mxCell>
        <mxCell id="dRWtWInUFrxZpv6eShJe-28" value="gerenciar suas milhas de viagem" style="ellipse;whiteSpace=wrap;html=1;fontSize=16;" parent="dRWtWInUFrxZpv6eShJe-20" vertex="1">
          <mxGeometry x="20" y="330" width="130" height="80" as="geometry" />
        </mxCell>
        <mxCell id="dRWtWInUFrxZpv6eShJe-23" style="edgeStyle=none;curved=1;rounded=0;orthogonalLoop=1;jettySize=auto;html=1;exitX=1;exitY=0.3333333333333333;exitDx=0;exitDy=0;exitPerimeter=0;entryX=0;entryY=0.5;entryDx=0;entryDy=0;fontSize=12;startSize=8;endSize=8;" parent="1" target="dRWtWInUFrxZpv6eShJe-22" edge="1">
          <mxGeometry relative="1" as="geometry">
            <mxPoint x="1650" y="720" as="sourcePoint" />
            <Array as="points">
              <mxPoint x="1630" y="570" />
            </Array>
          </mxGeometry>
        </mxCell>
        <mxCell id="dRWtWInUFrxZpv6eShJe-21" value="Actor" style="shape=umlActor;verticalLabelPosition=bottom;verticalAlign=top;html=1;outlineConnect=0;fontSize=16;" parent="1" vertex="1">
          <mxGeometry x="1630" y="710" width="30" height="60" as="geometry" />
        </mxCell>
        <mxCell id="dRWtWInUFrxZpv6eShJe-37" style="edgeStyle=none;curved=1;rounded=0;orthogonalLoop=1;jettySize=auto;html=1;exitX=1;exitY=0.3333333333333333;exitDx=0;exitDy=0;exitPerimeter=0;entryX=0.048;entryY=0.147;entryDx=0;entryDy=0;entryPerimeter=0;fontSize=12;startSize=8;endSize=8;" parent="1" source="dRWtWInUFrxZpv6eShJe-30" target="dRWtWInUFrxZpv6eShJe-31" edge="1">
          <mxGeometry relative="1" as="geometry" />
        </mxCell>
        <mxCell id="dRWtWInUFrxZpv6eShJe-30" value="Actor" style="shape=umlActor;verticalLabelPosition=bottom;verticalAlign=top;html=1;outlineConnect=0;fontSize=16;" parent="1" vertex="1">
          <mxGeometry x="40" y="1160" width="30" height="60" as="geometry" />
        </mxCell>
        <mxCell id="dRWtWInUFrxZpv6eShJe-31" value="" style="swimlane;startSize=0;fontSize=16;" parent="1" vertex="1">
          <mxGeometry x="95" y="1020" width="210" height="340" as="geometry" />
        </mxCell>
        <mxCell id="dRWtWInUFrxZpv6eShJe-34" value="" style="edgeStyle=none;curved=1;rounded=0;orthogonalLoop=1;jettySize=auto;html=1;fontSize=12;startSize=8;endSize=8;" parent="dRWtWInUFrxZpv6eShJe-31" source="dRWtWInUFrxZpv6eShJe-32" target="dRWtWInUFrxZpv6eShJe-33" edge="1">
          <mxGeometry relative="1" as="geometry" />
        </mxCell>
        <mxCell id="dRWtWInUFrxZpv6eShJe-32" value="acesso ao sistema" style="ellipse;whiteSpace=wrap;html=1;fontSize=16;" parent="dRWtWInUFrxZpv6eShJe-31" vertex="1">
          <mxGeometry x="10" y="10" width="120" height="80" as="geometry" />
        </mxCell>
        <mxCell id="dRWtWInUFrxZpv6eShJe-36" value="" style="edgeStyle=none;curved=1;rounded=0;orthogonalLoop=1;jettySize=auto;html=1;fontSize=12;startSize=8;endSize=8;" parent="dRWtWInUFrxZpv6eShJe-31" source="dRWtWInUFrxZpv6eShJe-33" target="dRWtWInUFrxZpv6eShJe-35" edge="1">
          <mxGeometry relative="1" as="geometry" />
        </mxCell>
        <mxCell id="dRWtWInUFrxZpv6eShJe-33" value="gerenciar solicitações de suporte" style="ellipse;whiteSpace=wrap;html=1;fontSize=16;" parent="dRWtWInUFrxZpv6eShJe-31" vertex="1">
          <mxGeometry x="10" y="120" width="120" height="80" as="geometry" />
        </mxCell>
        <mxCell id="dRWtWInUFrxZpv6eShJe-35" value="manter histórico de problemas resolvidos" style="ellipse;whiteSpace=wrap;html=1;fontSize=16;" parent="dRWtWInUFrxZpv6eShJe-31" vertex="1">
          <mxGeometry x="10" y="240" width="130" height="80" as="geometry" />
        </mxCell>
        <mxCell id="dRWtWInUFrxZpv6eShJe-49" style="edgeStyle=none;curved=1;rounded=0;orthogonalLoop=1;jettySize=auto;html=1;exitX=1;exitY=0.3333333333333333;exitDx=0;exitDy=0;exitPerimeter=0;entryX=0;entryY=0.5;entryDx=0;entryDy=0;fontSize=12;startSize=8;endSize=8;" parent="1" source="dRWtWInUFrxZpv6eShJe-38" target="dRWtWInUFrxZpv6eShJe-40" edge="1">
          <mxGeometry relative="1" as="geometry" />
        </mxCell>
        <mxCell id="dRWtWInUFrxZpv6eShJe-50" style="edgeStyle=none;curved=1;rounded=0;orthogonalLoop=1;jettySize=auto;html=1;exitX=1;exitY=0.3333333333333333;exitDx=0;exitDy=0;exitPerimeter=0;entryX=0;entryY=0.5;entryDx=0;entryDy=0;fontSize=12;startSize=8;endSize=8;" parent="1" source="dRWtWInUFrxZpv6eShJe-38" target="dRWtWInUFrxZpv6eShJe-41" edge="1">
          <mxGeometry relative="1" as="geometry" />
        </mxCell>
        <mxCell id="dRWtWInUFrxZpv6eShJe-51" style="edgeStyle=none;curved=1;rounded=0;orthogonalLoop=1;jettySize=auto;html=1;exitX=1;exitY=0.3333333333333333;exitDx=0;exitDy=0;exitPerimeter=0;entryX=0;entryY=0.5;entryDx=0;entryDy=0;fontSize=12;startSize=8;endSize=8;" parent="1" source="dRWtWInUFrxZpv6eShJe-38" target="dRWtWInUFrxZpv6eShJe-45" edge="1">
          <mxGeometry relative="1" as="geometry" />
        </mxCell>
        <mxCell id="dRWtWInUFrxZpv6eShJe-38" value="Actor" style="shape=umlActor;verticalLabelPosition=bottom;verticalAlign=top;html=1;outlineConnect=0;fontSize=16;" parent="1" vertex="1">
          <mxGeometry x="350" y="1165" width="30" height="60" as="geometry" />
        </mxCell>
        <mxCell id="dRWtWInUFrxZpv6eShJe-39" value="" style="swimlane;startSize=0;fontSize=16;" parent="1" vertex="1">
          <mxGeometry x="400" y="1015" width="390" height="335" as="geometry" />
        </mxCell>
        <mxCell id="dRWtWInUFrxZpv6eShJe-42" value="" style="edgeStyle=none;curved=1;rounded=0;orthogonalLoop=1;jettySize=auto;html=1;fontSize=12;startSize=8;endSize=8;" parent="dRWtWInUFrxZpv6eShJe-39" source="dRWtWInUFrxZpv6eShJe-40" target="dRWtWInUFrxZpv6eShJe-41" edge="1">
          <mxGeometry relative="1" as="geometry" />
        </mxCell>
        <mxCell id="dRWtWInUFrxZpv6eShJe-40" value="acesso ao app" style="ellipse;whiteSpace=wrap;html=1;fontSize=16;" parent="dRWtWInUFrxZpv6eShJe-39" vertex="1">
          <mxGeometry x="10" y="15" width="120" height="80" as="geometry" />
        </mxCell>
        <mxCell id="dRWtWInUFrxZpv6eShJe-44" value="" style="edgeStyle=none;curved=1;rounded=0;orthogonalLoop=1;jettySize=auto;html=1;fontSize=12;startSize=8;endSize=8;" parent="dRWtWInUFrxZpv6eShJe-39" source="dRWtWInUFrxZpv6eShJe-41" edge="1">
          <mxGeometry relative="1" as="geometry">
            <mxPoint x="70" y="215" as="targetPoint" />
          </mxGeometry>
        </mxCell>
        <mxCell id="dRWtWInUFrxZpv6eShJe-46" value="" style="edgeStyle=none;curved=1;rounded=0;orthogonalLoop=1;jettySize=auto;html=1;fontSize=12;startSize=8;endSize=8;" parent="dRWtWInUFrxZpv6eShJe-39" source="dRWtWInUFrxZpv6eShJe-41" target="dRWtWInUFrxZpv6eShJe-45" edge="1">
          <mxGeometry relative="1" as="geometry" />
        </mxCell>
        <mxCell id="dRWtWInUFrxZpv6eShJe-41" value="fazer pedidos online" style="ellipse;whiteSpace=wrap;html=1;fontSize=16;" parent="dRWtWInUFrxZpv6eShJe-39" vertex="1">
          <mxGeometry x="10" y="115" width="120" height="80" as="geometry" />
        </mxCell>
        <mxCell id="dRWtWInUFrxZpv6eShJe-53" style="edgeStyle=none;curved=1;rounded=0;orthogonalLoop=1;jettySize=auto;html=1;exitX=1;exitY=0.5;exitDx=0;exitDy=0;entryX=0;entryY=0.5;entryDx=0;entryDy=0;fontSize=12;startSize=8;endSize=8;" parent="dRWtWInUFrxZpv6eShJe-39" source="dRWtWInUFrxZpv6eShJe-45" target="dRWtWInUFrxZpv6eShJe-48" edge="1">
          <mxGeometry relative="1" as="geometry" />
        </mxCell>
        <mxCell id="dRWtWInUFrxZpv6eShJe-45" value="monitorar status do pedido" style="ellipse;whiteSpace=wrap;html=1;fontSize=16;" parent="dRWtWInUFrxZpv6eShJe-39" vertex="1">
          <mxGeometry x="10" y="215" width="120" height="80" as="geometry" />
        </mxCell>
        <mxCell id="dRWtWInUFrxZpv6eShJe-48" value="status da entrega" style="ellipse;whiteSpace=wrap;html=1;fontSize=16;" parent="dRWtWInUFrxZpv6eShJe-39" vertex="1">
          <mxGeometry x="190" y="130" width="120" height="80" as="geometry" />
        </mxCell>
        <mxCell id="dRWtWInUFrxZpv6eShJe-52" style="edgeStyle=none;curved=1;rounded=0;orthogonalLoop=1;jettySize=auto;html=1;exitX=0;exitY=0.3333333333333333;exitDx=0;exitDy=0;exitPerimeter=0;entryX=1;entryY=0.5;entryDx=0;entryDy=0;fontSize=12;startSize=8;endSize=8;" parent="1" source="dRWtWInUFrxZpv6eShJe-47" target="dRWtWInUFrxZpv6eShJe-48" edge="1">
          <mxGeometry relative="1" as="geometry" />
        </mxCell>
        <mxCell id="dRWtWInUFrxZpv6eShJe-47" value="restaurante" style="shape=umlActor;verticalLabelPosition=bottom;verticalAlign=top;html=1;outlineConnect=0;fontSize=16;" parent="1" vertex="1">
          <mxGeometry x="830" y="1165" width="30" height="60" as="geometry" />
        </mxCell>
        <mxCell id="dRWtWInUFrxZpv6eShJe-66" style="edgeStyle=none;curved=1;rounded=0;orthogonalLoop=1;jettySize=auto;html=1;exitX=1;exitY=0.3333333333333333;exitDx=0;exitDy=0;exitPerimeter=0;entryX=0;entryY=0.5;entryDx=0;entryDy=0;fontSize=12;startSize=8;endSize=8;" parent="1" source="dRWtWInUFrxZpv6eShJe-54" target="dRWtWInUFrxZpv6eShJe-56" edge="1">
          <mxGeometry relative="1" as="geometry" />
        </mxCell>
        <mxCell id="dRWtWInUFrxZpv6eShJe-54" value="Actor" style="shape=umlActor;verticalLabelPosition=bottom;verticalAlign=top;html=1;outlineConnect=0;fontSize=16;" parent="1" vertex="1">
          <mxGeometry x="926.25" y="1165" width="30" height="60" as="geometry" />
        </mxCell>
        <mxCell id="dRWtWInUFrxZpv6eShJe-55" value="" style="swimlane;startSize=0;fontSize=16;" parent="1" vertex="1">
          <mxGeometry x="990" y="1010" width="370" height="320" as="geometry" />
        </mxCell>
        <mxCell id="dRWtWInUFrxZpv6eShJe-58" value="" style="edgeStyle=none;curved=1;rounded=0;orthogonalLoop=1;jettySize=auto;html=1;fontSize=12;startSize=8;endSize=8;" parent="dRWtWInUFrxZpv6eShJe-55" source="dRWtWInUFrxZpv6eShJe-56" target="dRWtWInUFrxZpv6eShJe-57" edge="1">
          <mxGeometry relative="1" as="geometry" />
        </mxCell>
        <mxCell id="dRWtWInUFrxZpv6eShJe-56" value="acessar o sistema" style="ellipse;whiteSpace=wrap;html=1;fontSize=16;" parent="dRWtWInUFrxZpv6eShJe-55" vertex="1">
          <mxGeometry x="10" y="10" width="120" height="80" as="geometry" />
        </mxCell>
        <mxCell id="dRWtWInUFrxZpv6eShJe-60" value="" style="edgeStyle=none;curved=1;rounded=0;orthogonalLoop=1;jettySize=auto;html=1;fontSize=12;startSize=8;endSize=8;" parent="dRWtWInUFrxZpv6eShJe-55" source="dRWtWInUFrxZpv6eShJe-57" target="dRWtWInUFrxZpv6eShJe-59" edge="1">
          <mxGeometry relative="1" as="geometry" />
        </mxCell>
        <mxCell id="dRWtWInUFrxZpv6eShJe-62" value="" style="edgeStyle=none;curved=1;rounded=0;orthogonalLoop=1;jettySize=auto;html=1;fontSize=12;startSize=8;endSize=8;" parent="dRWtWInUFrxZpv6eShJe-55" source="dRWtWInUFrxZpv6eShJe-57" target="dRWtWInUFrxZpv6eShJe-61" edge="1">
          <mxGeometry relative="1" as="geometry" />
        </mxCell>
        <mxCell id="dRWtWInUFrxZpv6eShJe-63" value="" style="edgeStyle=none;curved=1;rounded=0;orthogonalLoop=1;jettySize=auto;html=1;fontSize=12;startSize=8;endSize=8;" parent="dRWtWInUFrxZpv6eShJe-55" source="dRWtWInUFrxZpv6eShJe-57" target="dRWtWInUFrxZpv6eShJe-61" edge="1">
          <mxGeometry relative="1" as="geometry" />
        </mxCell>
        <mxCell id="dRWtWInUFrxZpv6eShJe-65" value="" style="edgeStyle=none;curved=1;rounded=0;orthogonalLoop=1;jettySize=auto;html=1;fontSize=12;startSize=8;endSize=8;" parent="dRWtWInUFrxZpv6eShJe-55" source="dRWtWInUFrxZpv6eShJe-57" target="dRWtWInUFrxZpv6eShJe-64" edge="1">
          <mxGeometry relative="1" as="geometry" />
        </mxCell>
        <mxCell id="dRWtWInUFrxZpv6eShJe-57" value="gerenciar" style="ellipse;whiteSpace=wrap;html=1;fontSize=16;" parent="dRWtWInUFrxZpv6eShJe-55" vertex="1">
          <mxGeometry x="10" y="130" width="120" height="80" as="geometry" />
        </mxCell>
        <mxCell id="dRWtWInUFrxZpv6eShJe-59" value="reservas" style="ellipse;whiteSpace=wrap;html=1;fontSize=16;" parent="dRWtWInUFrxZpv6eShJe-55" vertex="1">
          <mxGeometry x="170" y="40" width="120" height="80" as="geometry" />
        </mxCell>
        <mxCell id="dRWtWInUFrxZpv6eShJe-61" value="contratos" style="ellipse;whiteSpace=wrap;html=1;fontSize=16;" parent="dRWtWInUFrxZpv6eShJe-55" vertex="1">
          <mxGeometry x="170" y="230" width="120" height="80" as="geometry" />
        </mxCell>
        <mxCell id="dRWtWInUFrxZpv6eShJe-64" value="manutenção" style="ellipse;whiteSpace=wrap;html=1;fontSize=16;" parent="dRWtWInUFrxZpv6eShJe-55" vertex="1">
          <mxGeometry x="170" y="130" width="120" height="80" as="geometry" />
        </mxCell>
        <mxCell id="dRWtWInUFrxZpv6eShJe-67" value="Actor" style="shape=umlActor;verticalLabelPosition=bottom;verticalAlign=top;html=1;outlineConnect=0;fontSize=16;" parent="1" vertex="1">
          <mxGeometry x="1410" y="1140" width="30" height="60" as="geometry" />
        </mxCell>
        <mxCell id="dRWtWInUFrxZpv6eShJe-68" value="" style="swimlane;startSize=0;fontSize=16;" parent="1" vertex="1">
          <mxGeometry x="1460" y="1010" width="410" height="320" as="geometry" />
        </mxCell>
        <mxCell id="dRWtWInUFrxZpv6eShJe-71" value="" style="edgeStyle=none;curved=1;rounded=0;orthogonalLoop=1;jettySize=auto;html=1;fontSize=12;startSize=8;endSize=8;" parent="dRWtWInUFrxZpv6eShJe-68" source="dRWtWInUFrxZpv6eShJe-69" target="dRWtWInUFrxZpv6eShJe-70" edge="1">
          <mxGeometry relative="1" as="geometry" />
        </mxCell>
        <mxCell id="dRWtWInUFrxZpv6eShJe-69" value="acessar o sistema" style="ellipse;whiteSpace=wrap;html=1;fontSize=16;" parent="dRWtWInUFrxZpv6eShJe-68" vertex="1">
          <mxGeometry x="12.5" y="10" width="120" height="80" as="geometry" />
        </mxCell>
        <mxCell id="dRWtWInUFrxZpv6eShJe-73" value="" style="edgeStyle=none;curved=1;rounded=0;orthogonalLoop=1;jettySize=auto;html=1;fontSize=12;startSize=8;endSize=8;" parent="dRWtWInUFrxZpv6eShJe-68" source="dRWtWInUFrxZpv6eShJe-70" target="dRWtWInUFrxZpv6eShJe-72" edge="1">
          <mxGeometry relative="1" as="geometry" />
        </mxCell>
        <mxCell id="dRWtWInUFrxZpv6eShJe-75" value="" style="edgeStyle=none;curved=1;rounded=0;orthogonalLoop=1;jettySize=auto;html=1;fontSize=12;startSize=8;endSize=8;" parent="dRWtWInUFrxZpv6eShJe-68" source="dRWtWInUFrxZpv6eShJe-70" target="dRWtWInUFrxZpv6eShJe-74" edge="1">
          <mxGeometry relative="1" as="geometry" />
        </mxCell>
        <mxCell id="dRWtWInUFrxZpv6eShJe-77" value="" style="edgeStyle=none;curved=1;rounded=0;orthogonalLoop=1;jettySize=auto;html=1;fontSize=12;startSize=8;endSize=8;" parent="dRWtWInUFrxZpv6eShJe-68" source="dRWtWInUFrxZpv6eShJe-70" target="dRWtWInUFrxZpv6eShJe-76" edge="1">
          <mxGeometry relative="1" as="geometry" />
        </mxCell>
        <mxCell id="dRWtWInUFrxZpv6eShJe-70" value="gerenciar" style="ellipse;whiteSpace=wrap;html=1;fontSize=16;" parent="dRWtWInUFrxZpv6eShJe-68" vertex="1">
          <mxGeometry x="12.5" y="120" width="120" height="80" as="geometry" />
        </mxCell>
        <mxCell id="dRWtWInUFrxZpv6eShJe-72" value="doações" style="ellipse;whiteSpace=wrap;html=1;fontSize=16;" parent="dRWtWInUFrxZpv6eShJe-68" vertex="1">
          <mxGeometry x="150" y="20" width="120" height="80" as="geometry" />
        </mxCell>
        <mxCell id="dRWtWInUFrxZpv6eShJe-74" value="voluntários" style="ellipse;whiteSpace=wrap;html=1;fontSize=16;" parent="dRWtWInUFrxZpv6eShJe-68" vertex="1">
          <mxGeometry x="160" y="120" width="120" height="80" as="geometry" />
        </mxCell>
        <mxCell id="dRWtWInUFrxZpv6eShJe-76" value="projetos" style="ellipse;whiteSpace=wrap;html=1;fontSize=16;" parent="dRWtWInUFrxZpv6eShJe-68" vertex="1">
          <mxGeometry x="160" y="230" width="120" height="80" as="geometry" />
        </mxCell>
        <mxCell id="dRWtWInUFrxZpv6eShJe-89" style="edgeStyle=none;curved=1;rounded=0;orthogonalLoop=1;jettySize=auto;html=1;exitX=1;exitY=0.3333333333333333;exitDx=0;exitDy=0;exitPerimeter=0;entryX=0;entryY=0.5;entryDx=0;entryDy=0;fontSize=12;startSize=8;endSize=8;" parent="1" source="dRWtWInUFrxZpv6eShJe-78" target="dRWtWInUFrxZpv6eShJe-80" edge="1">
          <mxGeometry relative="1" as="geometry" />
        </mxCell>
        <mxCell id="dRWtWInUFrxZpv6eShJe-78" value="Actor" style="shape=umlActor;verticalLabelPosition=bottom;verticalAlign=top;html=1;outlineConnect=0;fontSize=16;" parent="1" vertex="1">
          <mxGeometry x="40" y="1550" width="30" height="60" as="geometry" />
        </mxCell>
        <mxCell id="dRWtWInUFrxZpv6eShJe-79" value="" style="swimlane;startSize=0;fontSize=16;" parent="1" vertex="1">
          <mxGeometry x="90" y="1410" width="375" height="400" as="geometry" />
        </mxCell>
        <mxCell id="dRWtWInUFrxZpv6eShJe-82" value="" style="edgeStyle=none;curved=1;rounded=0;orthogonalLoop=1;jettySize=auto;html=1;fontSize=12;startSize=8;endSize=8;" parent="dRWtWInUFrxZpv6eShJe-79" source="dRWtWInUFrxZpv6eShJe-80" target="dRWtWInUFrxZpv6eShJe-81" edge="1">
          <mxGeometry relative="1" as="geometry" />
        </mxCell>
        <mxCell id="dRWtWInUFrxZpv6eShJe-80" value="acessar o app" style="ellipse;whiteSpace=wrap;html=1;fontSize=16;" parent="dRWtWInUFrxZpv6eShJe-79" vertex="1">
          <mxGeometry x="15" y="20" width="120" height="80" as="geometry" />
        </mxCell>
        <mxCell id="dRWtWInUFrxZpv6eShJe-84" value="" style="edgeStyle=none;curved=1;rounded=0;orthogonalLoop=1;jettySize=auto;html=1;fontSize=12;startSize=8;endSize=8;" parent="dRWtWInUFrxZpv6eShJe-79" source="dRWtWInUFrxZpv6eShJe-81" target="dRWtWInUFrxZpv6eShJe-83" edge="1">
          <mxGeometry relative="1" as="geometry" />
        </mxCell>
        <mxCell id="dRWtWInUFrxZpv6eShJe-86" value="" style="edgeStyle=none;curved=1;rounded=0;orthogonalLoop=1;jettySize=auto;html=1;fontSize=12;startSize=8;endSize=8;" parent="dRWtWInUFrxZpv6eShJe-79" source="dRWtWInUFrxZpv6eShJe-81" target="dRWtWInUFrxZpv6eShJe-85" edge="1">
          <mxGeometry relative="1" as="geometry" />
        </mxCell>
        <mxCell id="dRWtWInUFrxZpv6eShJe-88" value="" style="edgeStyle=none;curved=1;rounded=0;orthogonalLoop=1;jettySize=auto;html=1;fontSize=12;startSize=8;endSize=8;" parent="dRWtWInUFrxZpv6eShJe-79" source="dRWtWInUFrxZpv6eShJe-81" target="dRWtWInUFrxZpv6eShJe-87" edge="1">
          <mxGeometry relative="1" as="geometry" />
        </mxCell>
        <mxCell id="dRWtWInUFrxZpv6eShJe-81" value="assistir" style="ellipse;whiteSpace=wrap;html=1;fontSize=16;" parent="dRWtWInUFrxZpv6eShJe-79" vertex="1">
          <mxGeometry x="15" y="120" width="120" height="80" as="geometry" />
        </mxCell>
        <mxCell id="dRWtWInUFrxZpv6eShJe-83" value="séries" style="ellipse;whiteSpace=wrap;html=1;fontSize=16;" parent="dRWtWInUFrxZpv6eShJe-79" vertex="1">
          <mxGeometry x="170" y="30" width="120" height="80" as="geometry" />
        </mxCell>
        <mxCell id="dRWtWInUFrxZpv6eShJe-85" value="filmes" style="ellipse;whiteSpace=wrap;html=1;fontSize=16;" parent="dRWtWInUFrxZpv6eShJe-79" vertex="1">
          <mxGeometry x="160" y="220" width="120" height="80" as="geometry" />
        </mxCell>
        <mxCell id="dRWtWInUFrxZpv6eShJe-87" value="documentários" style="ellipse;whiteSpace=wrap;html=1;fontSize=16;" parent="dRWtWInUFrxZpv6eShJe-79" vertex="1">
          <mxGeometry x="170" y="120" width="120" height="80" as="geometry" />
        </mxCell>
        <mxCell id="dRWtWInUFrxZpv6eShJe-102" style="edgeStyle=none;curved=1;rounded=0;orthogonalLoop=1;jettySize=auto;html=1;exitX=1;exitY=0.3333333333333333;exitDx=0;exitDy=0;exitPerimeter=0;entryX=0;entryY=0.5;entryDx=0;entryDy=0;fontSize=12;startSize=8;endSize=8;" parent="1" source="dRWtWInUFrxZpv6eShJe-90" target="dRWtWInUFrxZpv6eShJe-92" edge="1">
          <mxGeometry relative="1" as="geometry" />
        </mxCell>
        <mxCell id="dRWtWInUFrxZpv6eShJe-90" value="Actor" style="shape=umlActor;verticalLabelPosition=bottom;verticalAlign=top;html=1;outlineConnect=0;fontSize=16;" parent="1" vertex="1">
          <mxGeometry x="545" y="1550" width="30" height="60" as="geometry" />
        </mxCell>
        <mxCell id="dRWtWInUFrxZpv6eShJe-91" value="" style="swimlane;startSize=0;fontSize=16;" parent="1" vertex="1">
          <mxGeometry x="590" y="1410" width="240" height="400" as="geometry" />
        </mxCell>
        <mxCell id="dRWtWInUFrxZpv6eShJe-99" value="" style="edgeStyle=none;curved=1;rounded=0;orthogonalLoop=1;jettySize=auto;html=1;fontSize=12;startSize=8;endSize=8;" parent="dRWtWInUFrxZpv6eShJe-91" source="dRWtWInUFrxZpv6eShJe-92" target="dRWtWInUFrxZpv6eShJe-98" edge="1">
          <mxGeometry relative="1" as="geometry" />
        </mxCell>
        <mxCell id="dRWtWInUFrxZpv6eShJe-92" value="acesso ao app" style="ellipse;whiteSpace=wrap;html=1;fontSize=16;" parent="dRWtWInUFrxZpv6eShJe-91" vertex="1">
          <mxGeometry x="10" y="10" width="120" height="80" as="geometry" />
        </mxCell>
        <mxCell id="dRWtWInUFrxZpv6eShJe-96" value="" style="edgeStyle=none;curved=1;rounded=0;orthogonalLoop=1;jettySize=auto;html=1;fontSize=12;startSize=8;endSize=8;" parent="dRWtWInUFrxZpv6eShJe-91" source="dRWtWInUFrxZpv6eShJe-93" target="dRWtWInUFrxZpv6eShJe-95" edge="1">
          <mxGeometry relative="1" as="geometry" />
        </mxCell>
        <mxCell id="dRWtWInUFrxZpv6eShJe-93" value="reservar viagem" style="ellipse;whiteSpace=wrap;html=1;fontSize=16;" parent="dRWtWInUFrxZpv6eShJe-91" vertex="1">
          <mxGeometry x="10" y="210" width="120" height="80" as="geometry" />
        </mxCell>
        <mxCell id="dRWtWInUFrxZpv6eShJe-95" value="gerenciar viagem" style="ellipse;whiteSpace=wrap;html=1;fontSize=16;" parent="dRWtWInUFrxZpv6eShJe-91" vertex="1">
          <mxGeometry x="10" y="310" width="120" height="80" as="geometry" />
        </mxCell>
        <mxCell id="dRWtWInUFrxZpv6eShJe-101" style="edgeStyle=none;curved=1;rounded=0;orthogonalLoop=1;jettySize=auto;html=1;exitX=0.5;exitY=1;exitDx=0;exitDy=0;entryX=0.5;entryY=0;entryDx=0;entryDy=0;fontSize=12;startSize=8;endSize=8;" parent="dRWtWInUFrxZpv6eShJe-91" source="dRWtWInUFrxZpv6eShJe-98" target="dRWtWInUFrxZpv6eShJe-93" edge="1">
          <mxGeometry relative="1" as="geometry" />
        </mxCell>
        <mxCell id="dRWtWInUFrxZpv6eShJe-98" value="pesquisar viagem" style="ellipse;whiteSpace=wrap;html=1;fontSize=16;" parent="dRWtWInUFrxZpv6eShJe-91" vertex="1">
          <mxGeometry x="10" y="110" width="120" height="80" as="geometry" />
        </mxCell>
        <mxCell id="dRWtWInUFrxZpv6eShJe-114" style="edgeStyle=none;curved=1;rounded=0;orthogonalLoop=1;jettySize=auto;html=1;exitX=1;exitY=0.3333333333333333;exitDx=0;exitDy=0;exitPerimeter=0;entryX=0;entryY=0.5;entryDx=0;entryDy=0;fontSize=12;startSize=8;endSize=8;" parent="1" source="dRWtWInUFrxZpv6eShJe-103" target="dRWtWInUFrxZpv6eShJe-105" edge="1">
          <mxGeometry relative="1" as="geometry" />
        </mxCell>
        <mxCell id="dRWtWInUFrxZpv6eShJe-103" value="Actor" style="shape=umlActor;verticalLabelPosition=bottom;verticalAlign=top;html=1;outlineConnect=0;fontSize=16;" parent="1" vertex="1">
          <mxGeometry x="960" y="1550" width="30" height="60" as="geometry" />
        </mxCell>
        <mxCell id="dRWtWInUFrxZpv6eShJe-104" value="" style="swimlane;startSize=0;fontSize=16;" parent="1" vertex="1">
          <mxGeometry x="1010" y="1410" width="320" height="310" as="geometry" />
        </mxCell>
        <mxCell id="dRWtWInUFrxZpv6eShJe-107" value="" style="edgeStyle=none;curved=1;rounded=0;orthogonalLoop=1;jettySize=auto;html=1;fontSize=12;startSize=8;endSize=8;" parent="dRWtWInUFrxZpv6eShJe-104" source="dRWtWInUFrxZpv6eShJe-105" target="dRWtWInUFrxZpv6eShJe-106" edge="1">
          <mxGeometry relative="1" as="geometry" />
        </mxCell>
        <mxCell id="dRWtWInUFrxZpv6eShJe-105" value="acesso ao sistema" style="ellipse;whiteSpace=wrap;html=1;fontSize=16;" parent="dRWtWInUFrxZpv6eShJe-104" vertex="1">
          <mxGeometry x="15" y="10" width="120" height="80" as="geometry" />
        </mxCell>
        <mxCell id="dRWtWInUFrxZpv6eShJe-111" value="" style="edgeStyle=none;curved=1;rounded=0;orthogonalLoop=1;jettySize=auto;html=1;fontSize=12;startSize=8;endSize=8;" parent="dRWtWInUFrxZpv6eShJe-104" source="dRWtWInUFrxZpv6eShJe-106" target="dRWtWInUFrxZpv6eShJe-110" edge="1">
          <mxGeometry relative="1" as="geometry" />
        </mxCell>
        <mxCell id="dRWtWInUFrxZpv6eShJe-113" value="" style="edgeStyle=none;curved=1;rounded=0;orthogonalLoop=1;jettySize=auto;html=1;fontSize=12;startSize=8;endSize=8;" parent="dRWtWInUFrxZpv6eShJe-104" source="dRWtWInUFrxZpv6eShJe-106" target="dRWtWInUFrxZpv6eShJe-112" edge="1">
          <mxGeometry relative="1" as="geometry" />
        </mxCell>
        <mxCell id="dRWtWInUFrxZpv6eShJe-106" value="gerenciar" style="ellipse;whiteSpace=wrap;html=1;fontSize=16;" parent="dRWtWInUFrxZpv6eShJe-104" vertex="1">
          <mxGeometry x="15" y="115" width="120" height="80" as="geometry" />
        </mxCell>
        <mxCell id="dRWtWInUFrxZpv6eShJe-108" value="planos" style="ellipse;whiteSpace=wrap;html=1;fontSize=16;" parent="dRWtWInUFrxZpv6eShJe-104" vertex="1">
          <mxGeometry x="180" y="10" width="120" height="80" as="geometry" />
        </mxCell>
        <mxCell id="dRWtWInUFrxZpv6eShJe-109" value="" style="edgeStyle=none;curved=1;rounded=0;orthogonalLoop=1;jettySize=auto;html=1;fontSize=12;startSize=8;endSize=8;" parent="dRWtWInUFrxZpv6eShJe-104" source="dRWtWInUFrxZpv6eShJe-106" target="dRWtWInUFrxZpv6eShJe-108" edge="1">
          <mxGeometry relative="1" as="geometry" />
        </mxCell>
        <mxCell id="dRWtWInUFrxZpv6eShJe-110" value="faturas" style="ellipse;whiteSpace=wrap;html=1;fontSize=16;" parent="dRWtWInUFrxZpv6eShJe-104" vertex="1">
          <mxGeometry x="160" y="220" width="120" height="80" as="geometry" />
        </mxCell>
        <mxCell id="dRWtWInUFrxZpv6eShJe-112" value="atendimento ao cliente" style="ellipse;whiteSpace=wrap;html=1;fontSize=16;" parent="dRWtWInUFrxZpv6eShJe-104" vertex="1">
          <mxGeometry x="170" y="115" width="120" height="80" as="geometry" />
        </mxCell>
        <mxCell id="dRWtWInUFrxZpv6eShJe-125" style="edgeStyle=none;curved=1;rounded=0;orthogonalLoop=1;jettySize=auto;html=1;exitX=1;exitY=0.3333333333333333;exitDx=0;exitDy=0;exitPerimeter=0;entryX=0;entryY=0.5;entryDx=0;entryDy=0;fontSize=12;startSize=8;endSize=8;" parent="1" source="dRWtWInUFrxZpv6eShJe-115" target="dRWtWInUFrxZpv6eShJe-117" edge="1">
          <mxGeometry relative="1" as="geometry" />
        </mxCell>
        <mxCell id="dRWtWInUFrxZpv6eShJe-115" value="Actor" style="shape=umlActor;verticalLabelPosition=bottom;verticalAlign=top;html=1;outlineConnect=0;fontSize=16;" parent="1" vertex="1">
          <mxGeometry x="1410" y="1535" width="30" height="60" as="geometry" />
        </mxCell>
        <mxCell id="dRWtWInUFrxZpv6eShJe-116" value="" style="swimlane;startSize=0;fontSize=16;" parent="1" vertex="1">
          <mxGeometry x="1470" y="1410" width="370" height="310" as="geometry" />
        </mxCell>
        <mxCell id="dRWtWInUFrxZpv6eShJe-119" value="" style="edgeStyle=none;curved=1;rounded=0;orthogonalLoop=1;jettySize=auto;html=1;fontSize=12;startSize=8;endSize=8;" parent="dRWtWInUFrxZpv6eShJe-116" source="dRWtWInUFrxZpv6eShJe-117" target="dRWtWInUFrxZpv6eShJe-118" edge="1">
          <mxGeometry relative="1" as="geometry" />
        </mxCell>
        <mxCell id="dRWtWInUFrxZpv6eShJe-117" value="acesso ao sistema" style="ellipse;whiteSpace=wrap;html=1;fontSize=16;" parent="dRWtWInUFrxZpv6eShJe-116" vertex="1">
          <mxGeometry x="10" y="10" width="120" height="80" as="geometry" />
        </mxCell>
        <mxCell id="dRWtWInUFrxZpv6eShJe-121" value="" style="edgeStyle=none;curved=1;rounded=0;orthogonalLoop=1;jettySize=auto;html=1;fontSize=12;startSize=8;endSize=8;" parent="dRWtWInUFrxZpv6eShJe-116" source="dRWtWInUFrxZpv6eShJe-118" target="dRWtWInUFrxZpv6eShJe-120" edge="1">
          <mxGeometry relative="1" as="geometry" />
        </mxCell>
        <mxCell id="dRWtWInUFrxZpv6eShJe-122" value="" style="edgeStyle=none;curved=1;rounded=0;orthogonalLoop=1;jettySize=auto;html=1;fontSize=12;startSize=8;endSize=8;" parent="dRWtWInUFrxZpv6eShJe-116" source="dRWtWInUFrxZpv6eShJe-118" target="dRWtWInUFrxZpv6eShJe-120" edge="1">
          <mxGeometry relative="1" as="geometry" />
        </mxCell>
        <mxCell id="dRWtWInUFrxZpv6eShJe-124" value="" style="edgeStyle=none;curved=1;rounded=0;orthogonalLoop=1;jettySize=auto;html=1;fontSize=12;startSize=8;endSize=8;" parent="dRWtWInUFrxZpv6eShJe-116" source="dRWtWInUFrxZpv6eShJe-118" target="dRWtWInUFrxZpv6eShJe-123" edge="1">
          <mxGeometry relative="1" as="geometry" />
        </mxCell>
        <mxCell id="dRWtWInUFrxZpv6eShJe-118" value="gerenciar" style="ellipse;whiteSpace=wrap;html=1;fontSize=16;" parent="dRWtWInUFrxZpv6eShJe-116" vertex="1">
          <mxGeometry x="10" y="110" width="120" height="80" as="geometry" />
        </mxCell>
        <mxCell id="dRWtWInUFrxZpv6eShJe-120" value="informações médicas" style="ellipse;whiteSpace=wrap;html=1;fontSize=16;" parent="dRWtWInUFrxZpv6eShJe-116" vertex="1">
          <mxGeometry x="160" y="60" width="120" height="80" as="geometry" />
        </mxCell>
        <mxCell id="dRWtWInUFrxZpv6eShJe-123" value="agendamento de consultas" style="ellipse;whiteSpace=wrap;html=1;fontSize=16;" parent="dRWtWInUFrxZpv6eShJe-116" vertex="1">
          <mxGeometry x="160" y="155" width="120" height="80" as="geometry" />
        </mxCell>
        <mxCell id="dRWtWInUFrxZpv6eShJe-137" style="edgeStyle=none;curved=1;rounded=0;orthogonalLoop=1;jettySize=auto;html=1;exitX=1;exitY=0.3333333333333333;exitDx=0;exitDy=0;exitPerimeter=0;entryX=0;entryY=0.5;entryDx=0;entryDy=0;fontSize=12;startSize=8;endSize=8;" parent="1" source="dRWtWInUFrxZpv6eShJe-126" target="dRWtWInUFrxZpv6eShJe-134" edge="1">
          <mxGeometry relative="1" as="geometry" />
        </mxCell>
        <mxCell id="dRWtWInUFrxZpv6eShJe-140" style="edgeStyle=none;curved=1;rounded=0;orthogonalLoop=1;jettySize=auto;html=1;exitX=1;exitY=0.3333333333333333;exitDx=0;exitDy=0;exitPerimeter=0;entryX=0;entryY=0.5;entryDx=0;entryDy=0;fontSize=12;startSize=8;endSize=8;" parent="1" source="dRWtWInUFrxZpv6eShJe-126" target="dRWtWInUFrxZpv6eShJe-128" edge="1">
          <mxGeometry relative="1" as="geometry" />
        </mxCell>
        <mxCell id="dRWtWInUFrxZpv6eShJe-126" value="Actor" style="shape=umlActor;verticalLabelPosition=bottom;verticalAlign=top;html=1;outlineConnect=0;fontSize=16;" parent="1" vertex="1">
          <mxGeometry x="50" y="1990" width="30" height="60" as="geometry" />
        </mxCell>
        <mxCell id="dRWtWInUFrxZpv6eShJe-127" value="" style="swimlane;startSize=0;fontSize=16;" parent="1" vertex="1">
          <mxGeometry x="90" y="1830" width="380" height="360" as="geometry" />
        </mxCell>
        <mxCell id="dRWtWInUFrxZpv6eShJe-128" value="acesso ao sistema" style="ellipse;whiteSpace=wrap;html=1;fontSize=16;" parent="dRWtWInUFrxZpv6eShJe-127" vertex="1">
          <mxGeometry x="20" y="110" width="120" height="80" as="geometry" />
        </mxCell>
        <mxCell id="dRWtWInUFrxZpv6eShJe-133" value="gerar relatório" style="ellipse;whiteSpace=wrap;html=1;fontSize=16;" parent="dRWtWInUFrxZpv6eShJe-127" vertex="1">
          <mxGeometry x="230" y="110" width="120" height="80" as="geometry" />
        </mxCell>
        <mxCell id="dRWtWInUFrxZpv6eShJe-134" value="monitorar consumo" style="ellipse;whiteSpace=wrap;html=1;fontSize=16;" parent="dRWtWInUFrxZpv6eShJe-127" vertex="1">
          <mxGeometry x="130" y="240" width="120" height="80" as="geometry" />
        </mxCell>
        <mxCell id="dRWtWInUFrxZpv6eShJe-136" style="edgeStyle=none;curved=1;rounded=0;orthogonalLoop=1;jettySize=auto;html=1;exitX=0;exitY=0.3333333333333333;exitDx=0;exitDy=0;exitPerimeter=0;entryX=1;entryY=0.5;entryDx=0;entryDy=0;fontSize=12;startSize=8;endSize=8;" parent="1" source="dRWtWInUFrxZpv6eShJe-131" target="dRWtWInUFrxZpv6eShJe-134" edge="1">
          <mxGeometry relative="1" as="geometry" />
        </mxCell>
        <mxCell id="dRWtWInUFrxZpv6eShJe-138" style="edgeStyle=none;curved=1;rounded=0;orthogonalLoop=1;jettySize=auto;html=1;exitX=0;exitY=0.3333333333333333;exitDx=0;exitDy=0;exitPerimeter=0;entryX=1;entryY=0.5;entryDx=0;entryDy=0;fontSize=12;startSize=8;endSize=8;" parent="1" source="dRWtWInUFrxZpv6eShJe-131" target="dRWtWInUFrxZpv6eShJe-133" edge="1">
          <mxGeometry relative="1" as="geometry" />
        </mxCell>
        <mxCell id="dRWtWInUFrxZpv6eShJe-131" value="funcionarios" style="shape=umlActor;verticalLabelPosition=bottom;verticalAlign=top;html=1;outlineConnect=0;fontSize=16;" parent="1" vertex="1">
          <mxGeometry x="500" y="1990" width="30" height="60" as="geometry" />
        </mxCell>
        <mxCell id="dRWtWInUFrxZpv6eShJe-135" style="edgeStyle=none;curved=1;rounded=0;orthogonalLoop=1;jettySize=auto;html=1;exitX=0.5;exitY=0;exitDx=0;exitDy=0;exitPerimeter=0;entryX=0.5;entryY=1;entryDx=0;entryDy=0;fontSize=12;startSize=8;endSize=8;" parent="1" source="dRWtWInUFrxZpv6eShJe-132" target="dRWtWInUFrxZpv6eShJe-134" edge="1">
          <mxGeometry relative="1" as="geometry" />
        </mxCell>
        <mxCell id="dRWtWInUFrxZpv6eShJe-132" value="fornecedores" style="shape=umlActor;verticalLabelPosition=bottom;verticalAlign=top;html=1;outlineConnect=0;fontSize=16;" parent="1" vertex="1">
          <mxGeometry x="265" y="2210" width="30" height="60" as="geometry" />
        </mxCell>
        <mxCell id="dRWtWInUFrxZpv6eShJe-144" style="edgeStyle=none;curved=1;rounded=0;orthogonalLoop=1;jettySize=auto;html=1;exitX=1;exitY=0.3333333333333333;exitDx=0;exitDy=0;exitPerimeter=0;entryX=0;entryY=0.5;entryDx=0;entryDy=0;fontSize=12;startSize=8;endSize=8;" parent="1" source="dRWtWInUFrxZpv6eShJe-141" target="dRWtWInUFrxZpv6eShJe-143" edge="1">
          <mxGeometry relative="1" as="geometry" />
        </mxCell>
        <mxCell id="dRWtWInUFrxZpv6eShJe-141" value="Actor" style="shape=umlActor;verticalLabelPosition=bottom;verticalAlign=top;html=1;outlineConnect=0;fontSize=16;" parent="1" vertex="1">
          <mxGeometry x="600" y="1990" width="30" height="60" as="geometry" />
        </mxCell>
        <mxCell id="dRWtWInUFrxZpv6eShJe-142" value="" style="swimlane;startSize=0;fontSize=16;" parent="1" vertex="1">
          <mxGeometry x="650" y="1840" width="480" height="360" as="geometry" />
        </mxCell>
        <mxCell id="dRWtWInUFrxZpv6eShJe-146" value="" style="edgeStyle=none;curved=1;rounded=0;orthogonalLoop=1;jettySize=auto;html=1;fontSize=12;startSize=8;endSize=8;" parent="dRWtWInUFrxZpv6eShJe-142" source="dRWtWInUFrxZpv6eShJe-143" target="dRWtWInUFrxZpv6eShJe-145" edge="1">
          <mxGeometry relative="1" as="geometry" />
        </mxCell>
        <mxCell id="dRWtWInUFrxZpv6eShJe-143" value="acesso ao app" style="ellipse;whiteSpace=wrap;html=1;fontSize=16;" parent="dRWtWInUFrxZpv6eShJe-142" vertex="1">
          <mxGeometry x="20" y="20" width="120" height="80" as="geometry" />
        </mxCell>
        <mxCell id="dRWtWInUFrxZpv6eShJe-145" value="pedir comidas" style="ellipse;whiteSpace=wrap;html=1;fontSize=16;" parent="dRWtWInUFrxZpv6eShJe-142" vertex="1">
          <mxGeometry x="20" y="150" width="120" height="80" as="geometry" />
        </mxCell>
        <mxCell id="dRWtWInUFrxZpv6eShJe-150" style="edgeStyle=none;curved=1;rounded=0;orthogonalLoop=1;jettySize=auto;html=1;exitX=0;exitY=0.5;exitDx=0;exitDy=0;entryX=1;entryY=0.5;entryDx=0;entryDy=0;fontSize=12;startSize=8;endSize=8;" parent="dRWtWInUFrxZpv6eShJe-142" source="dRWtWInUFrxZpv6eShJe-148" target="dRWtWInUFrxZpv6eShJe-145" edge="1">
          <mxGeometry relative="1" as="geometry" />
        </mxCell>
        <mxCell id="dRWtWInUFrxZpv6eShJe-148" value="menu de restaurantes" style="ellipse;whiteSpace=wrap;html=1;fontSize=16;" parent="dRWtWInUFrxZpv6eShJe-142" vertex="1">
          <mxGeometry x="290" y="140" width="120" height="80" as="geometry" />
        </mxCell>
        <mxCell id="dRWtWInUFrxZpv6eShJe-149" style="edgeStyle=none;curved=1;rounded=0;orthogonalLoop=1;jettySize=auto;html=1;exitX=0;exitY=0.3333333333333333;exitDx=0;exitDy=0;exitPerimeter=0;entryX=1;entryY=0.5;entryDx=0;entryDy=0;fontSize=12;startSize=8;endSize=8;" parent="1" source="dRWtWInUFrxZpv6eShJe-147" target="dRWtWInUFrxZpv6eShJe-148" edge="1">
          <mxGeometry relative="1" as="geometry" />
        </mxCell>
        <mxCell id="dRWtWInUFrxZpv6eShJe-147" value="delivery" style="shape=umlActor;verticalLabelPosition=bottom;verticalAlign=top;html=1;outlineConnect=0;fontSize=16;" parent="1" vertex="1">
          <mxGeometry x="1150" y="1980" width="30" height="60" as="geometry" />
        </mxCell>
        <mxCell id="dRWtWInUFrxZpv6eShJe-151" value="Actor" style="shape=umlActor;verticalLabelPosition=bottom;verticalAlign=top;html=1;outlineConnect=0;fontSize=16;" parent="1" vertex="1">
          <mxGeometry x="1260" y="1980" width="30" height="60" as="geometry" />
        </mxCell>
        <mxCell id="dRWtWInUFrxZpv6eShJe-152" value="" style="swimlane;startSize=0;fontSize=16;" parent="1" vertex="1">
          <mxGeometry x="1300" y="1850" width="410" height="350" as="geometry" />
        </mxCell>
        <mxCell id="dRWtWInUFrxZpv6eShJe-155" value="" style="edgeStyle=none;curved=1;rounded=0;orthogonalLoop=1;jettySize=auto;html=1;fontSize=12;startSize=8;endSize=8;" parent="dRWtWInUFrxZpv6eShJe-152" source="dRWtWInUFrxZpv6eShJe-153" target="dRWtWInUFrxZpv6eShJe-154" edge="1">
          <mxGeometry relative="1" as="geometry" />
        </mxCell>
        <mxCell id="dRWtWInUFrxZpv6eShJe-153" value="acesso ao sistema" style="ellipse;whiteSpace=wrap;html=1;fontSize=16;" parent="dRWtWInUFrxZpv6eShJe-152" vertex="1">
          <mxGeometry x="10" y="10" width="120" height="80" as="geometry" />
        </mxCell>
        <mxCell id="dRWtWInUFrxZpv6eShJe-157" value="" style="edgeStyle=none;curved=1;rounded=0;orthogonalLoop=1;jettySize=auto;html=1;fontSize=12;startSize=8;endSize=8;" parent="dRWtWInUFrxZpv6eShJe-152" source="dRWtWInUFrxZpv6eShJe-154" target="dRWtWInUFrxZpv6eShJe-156" edge="1">
          <mxGeometry relative="1" as="geometry" />
        </mxCell>
        <mxCell id="dRWtWInUFrxZpv6eShJe-159" value="" style="edgeStyle=none;curved=1;rounded=0;orthogonalLoop=1;jettySize=auto;html=1;fontSize=12;startSize=8;endSize=8;" parent="dRWtWInUFrxZpv6eShJe-152" source="dRWtWInUFrxZpv6eShJe-154" target="dRWtWInUFrxZpv6eShJe-158" edge="1">
          <mxGeometry relative="1" as="geometry" />
        </mxCell>
        <mxCell id="dRWtWInUFrxZpv6eShJe-161" value="" style="edgeStyle=none;curved=1;rounded=0;orthogonalLoop=1;jettySize=auto;html=1;fontSize=12;startSize=8;endSize=8;" parent="dRWtWInUFrxZpv6eShJe-152" source="dRWtWInUFrxZpv6eShJe-154" target="dRWtWInUFrxZpv6eShJe-160" edge="1">
          <mxGeometry relative="1" as="geometry" />
        </mxCell>
        <mxCell id="dRWtWInUFrxZpv6eShJe-154" value="gerenciar" style="ellipse;whiteSpace=wrap;html=1;fontSize=16;" parent="dRWtWInUFrxZpv6eShJe-152" vertex="1">
          <mxGeometry x="10" y="130" width="120" height="80" as="geometry" />
        </mxCell>
        <mxCell id="dRWtWInUFrxZpv6eShJe-156" value="transporte" style="ellipse;whiteSpace=wrap;html=1;fontSize=16;" parent="dRWtWInUFrxZpv6eShJe-152" vertex="1">
          <mxGeometry x="150" y="30" width="120" height="80" as="geometry" />
        </mxCell>
        <mxCell id="dRWtWInUFrxZpv6eShJe-158" value="armazenamento" style="ellipse;whiteSpace=wrap;html=1;fontSize=16;" parent="dRWtWInUFrxZpv6eShJe-152" vertex="1">
          <mxGeometry x="160" y="130" width="120" height="80" as="geometry" />
        </mxCell>
        <mxCell id="dRWtWInUFrxZpv6eShJe-160" value="entrega" style="ellipse;whiteSpace=wrap;html=1;fontSize=16;" parent="dRWtWInUFrxZpv6eShJe-152" vertex="1">
          <mxGeometry x="160" y="240" width="120" height="80" as="geometry" />
        </mxCell>
        <mxCell id="dRWtWInUFrxZpv6eShJe-167" style="edgeStyle=none;curved=1;rounded=0;orthogonalLoop=1;jettySize=auto;html=1;exitX=1;exitY=0.3333333333333333;exitDx=0;exitDy=0;exitPerimeter=0;entryX=0;entryY=0.5;entryDx=0;entryDy=0;fontSize=12;startSize=8;endSize=8;" parent="1" source="dRWtWInUFrxZpv6eShJe-162" target="dRWtWInUFrxZpv6eShJe-164" edge="1">
          <mxGeometry relative="1" as="geometry" />
        </mxCell>
        <mxCell id="dRWtWInUFrxZpv6eShJe-162" value="Actor" style="shape=umlActor;verticalLabelPosition=bottom;verticalAlign=top;html=1;outlineConnect=0;fontSize=16;" parent="1" vertex="1">
          <mxGeometry x="50" y="2470" width="30" height="60" as="geometry" />
        </mxCell>
        <mxCell id="dRWtWInUFrxZpv6eShJe-163" value="" style="swimlane;startSize=0;fontSize=16;" parent="1" vertex="1">
          <mxGeometry x="95" y="2300" width="495" height="440" as="geometry" />
        </mxCell>
        <mxCell id="dRWtWInUFrxZpv6eShJe-166" value="" style="edgeStyle=none;curved=1;rounded=0;orthogonalLoop=1;jettySize=auto;html=1;fontSize=12;startSize=8;endSize=8;" parent="dRWtWInUFrxZpv6eShJe-163" source="dRWtWInUFrxZpv6eShJe-164" target="dRWtWInUFrxZpv6eShJe-165" edge="1">
          <mxGeometry relative="1" as="geometry" />
        </mxCell>
        <mxCell id="dRWtWInUFrxZpv6eShJe-164" value="acesso ao sistema" style="ellipse;whiteSpace=wrap;html=1;fontSize=16;" parent="dRWtWInUFrxZpv6eShJe-163" vertex="1">
          <mxGeometry x="20" y="20" width="120" height="80" as="geometry" />
        </mxCell>
        <mxCell id="dRWtWInUFrxZpv6eShJe-169" value="" style="edgeStyle=none;curved=1;rounded=0;orthogonalLoop=1;jettySize=auto;html=1;fontSize=12;startSize=8;endSize=8;" parent="dRWtWInUFrxZpv6eShJe-163" source="dRWtWInUFrxZpv6eShJe-165" target="dRWtWInUFrxZpv6eShJe-168" edge="1">
          <mxGeometry relative="1" as="geometry" />
        </mxCell>
        <mxCell id="dRWtWInUFrxZpv6eShJe-171" value="" style="edgeStyle=none;curved=1;rounded=0;orthogonalLoop=1;jettySize=auto;html=1;fontSize=12;startSize=8;endSize=8;" parent="dRWtWInUFrxZpv6eShJe-163" source="dRWtWInUFrxZpv6eShJe-165" target="dRWtWInUFrxZpv6eShJe-170" edge="1">
          <mxGeometry relative="1" as="geometry" />
        </mxCell>
        <mxCell id="dRWtWInUFrxZpv6eShJe-173" value="" style="edgeStyle=none;curved=1;rounded=0;orthogonalLoop=1;jettySize=auto;html=1;fontSize=12;startSize=8;endSize=8;" parent="dRWtWInUFrxZpv6eShJe-163" source="dRWtWInUFrxZpv6eShJe-165" target="dRWtWInUFrxZpv6eShJe-172" edge="1">
          <mxGeometry relative="1" as="geometry" />
        </mxCell>
        <mxCell id="dRWtWInUFrxZpv6eShJe-165" value="gerenciar" style="ellipse;whiteSpace=wrap;html=1;fontSize=16;" parent="dRWtWInUFrxZpv6eShJe-163" vertex="1">
          <mxGeometry x="20" y="190" width="120" height="80" as="geometry" />
        </mxCell>
        <mxCell id="dRWtWInUFrxZpv6eShJe-178" style="edgeStyle=none;curved=1;rounded=0;orthogonalLoop=1;jettySize=auto;html=1;exitX=1;exitY=0.5;exitDx=0;exitDy=0;entryX=0;entryY=0.5;entryDx=0;entryDy=0;fontSize=12;startSize=8;endSize=8;" parent="dRWtWInUFrxZpv6eShJe-163" source="dRWtWInUFrxZpv6eShJe-168" target="dRWtWInUFrxZpv6eShJe-175" edge="1">
          <mxGeometry relative="1" as="geometry">
            <Array as="points">
              <mxPoint x="395" y="60" />
            </Array>
          </mxGeometry>
        </mxCell>
        <mxCell id="dRWtWInUFrxZpv6eShJe-168" value="assinaturas" style="ellipse;whiteSpace=wrap;html=1;fontSize=16;" parent="dRWtWInUFrxZpv6eShJe-163" vertex="1">
          <mxGeometry x="162.5" y="50" width="120" height="80" as="geometry" />
        </mxCell>
        <mxCell id="dRWtWInUFrxZpv6eShJe-180" style="edgeStyle=none;curved=1;rounded=0;orthogonalLoop=1;jettySize=auto;html=1;exitX=1;exitY=0.5;exitDx=0;exitDy=0;entryX=0;entryY=0.5;entryDx=0;entryDy=0;fontSize=12;startSize=8;endSize=8;" parent="dRWtWInUFrxZpv6eShJe-163" source="dRWtWInUFrxZpv6eShJe-170" target="dRWtWInUFrxZpv6eShJe-175" edge="1">
          <mxGeometry relative="1" as="geometry">
            <Array as="points">
              <mxPoint x="435" y="380" />
            </Array>
          </mxGeometry>
        </mxCell>
        <mxCell id="dRWtWInUFrxZpv6eShJe-170" value="suporte técnico" style="ellipse;whiteSpace=wrap;html=1;fontSize=16;" parent="dRWtWInUFrxZpv6eShJe-163" vertex="1">
          <mxGeometry x="162.5" y="330" width="120" height="80" as="geometry" />
        </mxCell>
        <mxCell id="dRWtWInUFrxZpv6eShJe-179" style="edgeStyle=none;curved=1;rounded=0;orthogonalLoop=1;jettySize=auto;html=1;exitX=1;exitY=0.5;exitDx=0;exitDy=0;entryX=0;entryY=0.5;entryDx=0;entryDy=0;fontSize=12;startSize=8;endSize=8;" parent="dRWtWInUFrxZpv6eShJe-163" source="dRWtWInUFrxZpv6eShJe-172" target="dRWtWInUFrxZpv6eShJe-175" edge="1">
          <mxGeometry relative="1" as="geometry" />
        </mxCell>
        <mxCell id="dRWtWInUFrxZpv6eShJe-172" value="faturamento" style="ellipse;whiteSpace=wrap;html=1;fontSize=16;" parent="dRWtWInUFrxZpv6eShJe-163" vertex="1">
          <mxGeometry x="162.5" y="190" width="120" height="80" as="geometry" />
        </mxCell>
        <mxCell id="dRWtWInUFrxZpv6eShJe-175" value="atendimento ao cliente" style="ellipse;whiteSpace=wrap;html=1;fontSize=16;" parent="dRWtWInUFrxZpv6eShJe-163" vertex="1">
          <mxGeometry x="355" y="180" width="120" height="80" as="geometry" />
        </mxCell>
        <mxCell id="dRWtWInUFrxZpv6eShJe-177" style="edgeStyle=none;curved=1;rounded=0;orthogonalLoop=1;jettySize=auto;html=1;exitX=0;exitY=0.3333333333333333;exitDx=0;exitDy=0;exitPerimeter=0;entryX=1;entryY=0.5;entryDx=0;entryDy=0;fontSize=12;startSize=8;endSize=8;" parent="1" source="dRWtWInUFrxZpv6eShJe-174" target="dRWtWInUFrxZpv6eShJe-175" edge="1">
          <mxGeometry relative="1" as="geometry" />
        </mxCell>
        <mxCell id="dRWtWInUFrxZpv6eShJe-174" value="cliente" style="shape=umlActor;verticalLabelPosition=bottom;verticalAlign=top;html=1;outlineConnect=0;fontSize=16;" parent="1" vertex="1">
          <mxGeometry x="620" y="2480" width="30" height="60" as="geometry" />
        </mxCell>
        <mxCell id="dRWtWInUFrxZpv6eShJe-181" value="Actor" style="shape=umlActor;verticalLabelPosition=bottom;verticalAlign=top;html=1;outlineConnect=0;fontSize=16;" parent="1" vertex="1">
          <mxGeometry x="750" y="2480" width="30" height="60" as="geometry" />
        </mxCell>
        <mxCell id="dRWtWInUFrxZpv6eShJe-182" value="" style="swimlane;startSize=0;fontSize=16;" parent="1" vertex="1">
          <mxGeometry x="810" y="2280" width="870" height="510" as="geometry" />
        </mxCell>
        <mxCell id="dRWtWInUFrxZpv6eShJe-185" value="" style="edgeStyle=none;curved=1;rounded=0;orthogonalLoop=1;jettySize=auto;html=1;fontSize=12;startSize=8;endSize=8;" parent="dRWtWInUFrxZpv6eShJe-182" source="dRWtWInUFrxZpv6eShJe-183" target="dRWtWInUFrxZpv6eShJe-184" edge="1">
          <mxGeometry relative="1" as="geometry" />
        </mxCell>
        <mxCell id="dRWtWInUFrxZpv6eShJe-183" value="acesso ao sistemas" style="ellipse;whiteSpace=wrap;html=1;fontSize=16;" parent="dRWtWInUFrxZpv6eShJe-182" vertex="1">
          <mxGeometry x="10" y="10" width="120" height="80" as="geometry" />
        </mxCell>
        <mxCell id="dRWtWInUFrxZpv6eShJe-189" value="" style="edgeStyle=none;curved=1;rounded=0;orthogonalLoop=1;jettySize=auto;html=1;fontSize=12;startSize=8;endSize=8;" parent="dRWtWInUFrxZpv6eShJe-182" source="dRWtWInUFrxZpv6eShJe-184" target="dRWtWInUFrxZpv6eShJe-188" edge="1">
          <mxGeometry relative="1" as="geometry" />
        </mxCell>
        <mxCell id="dRWtWInUFrxZpv6eShJe-191" value="" style="edgeStyle=none;curved=1;rounded=0;orthogonalLoop=1;jettySize=auto;html=1;fontSize=12;startSize=8;endSize=8;" parent="dRWtWInUFrxZpv6eShJe-182" source="dRWtWInUFrxZpv6eShJe-184" target="dRWtWInUFrxZpv6eShJe-190" edge="1">
          <mxGeometry relative="1" as="geometry" />
        </mxCell>
        <mxCell id="dRWtWInUFrxZpv6eShJe-200" style="edgeStyle=none;curved=1;rounded=0;orthogonalLoop=1;jettySize=auto;html=1;exitX=1;exitY=0.5;exitDx=0;exitDy=0;entryX=0;entryY=0.5;entryDx=0;entryDy=0;fontSize=12;startSize=8;endSize=8;" parent="dRWtWInUFrxZpv6eShJe-182" source="dRWtWInUFrxZpv6eShJe-184" target="dRWtWInUFrxZpv6eShJe-192" edge="1">
          <mxGeometry relative="1" as="geometry" />
        </mxCell>
        <mxCell id="dRWtWInUFrxZpv6eShJe-184" value="monitorar" style="ellipse;whiteSpace=wrap;html=1;fontSize=16;" parent="dRWtWInUFrxZpv6eShJe-182" vertex="1">
          <mxGeometry x="375" y="360" width="120" height="80" as="geometry" />
        </mxCell>
        <mxCell id="dRWtWInUFrxZpv6eShJe-186" value="câmeras" style="ellipse;whiteSpace=wrap;html=1;fontSize=16;" parent="dRWtWInUFrxZpv6eShJe-182" vertex="1">
          <mxGeometry x="510" y="10" width="120" height="80" as="geometry" />
        </mxCell>
        <mxCell id="dRWtWInUFrxZpv6eShJe-187" value="" style="edgeStyle=none;curved=1;rounded=0;orthogonalLoop=1;jettySize=auto;html=1;fontSize=12;startSize=8;endSize=8;" parent="dRWtWInUFrxZpv6eShJe-182" source="dRWtWInUFrxZpv6eShJe-184" target="dRWtWInUFrxZpv6eShJe-186" edge="1">
          <mxGeometry relative="1" as="geometry" />
        </mxCell>
        <mxCell id="dRWtWInUFrxZpv6eShJe-188" value="alarmes" style="ellipse;whiteSpace=wrap;html=1;fontSize=16;" parent="dRWtWInUFrxZpv6eShJe-182" vertex="1">
          <mxGeometry x="240" y="10" width="120" height="80" as="geometry" />
        </mxCell>
        <mxCell id="dRWtWInUFrxZpv6eShJe-190" value="outros dispositivos" style="ellipse;whiteSpace=wrap;html=1;fontSize=16;" parent="dRWtWInUFrxZpv6eShJe-182" vertex="1">
          <mxGeometry x="380" y="90" width="120" height="80" as="geometry" />
        </mxCell>
        <mxCell id="dRWtWInUFrxZpv6eShJe-192" value="monitorar em tempo real" style="ellipse;whiteSpace=wrap;html=1;fontSize=16;" parent="dRWtWInUFrxZpv6eShJe-182" vertex="1">
          <mxGeometry x="640" y="180" width="120" height="80" as="geometry" />
        </mxCell>
        <mxCell id="dRWtWInUFrxZpv6eShJe-195" style="edgeStyle=none;curved=1;rounded=0;orthogonalLoop=1;jettySize=auto;html=1;exitX=0;exitY=0.3333333333333333;exitDx=0;exitDy=0;exitPerimeter=0;entryX=1;entryY=0.5;entryDx=0;entryDy=0;fontSize=12;startSize=8;endSize=8;" parent="1" source="dRWtWInUFrxZpv6eShJe-193" target="dRWtWInUFrxZpv6eShJe-192" edge="1">
          <mxGeometry relative="1" as="geometry" />
        </mxCell>
        <mxCell id="dRWtWInUFrxZpv6eShJe-193" value="sistema" style="shape=umlActor;verticalLabelPosition=bottom;verticalAlign=top;html=1;outlineConnect=0;fontSize=16;" parent="1" vertex="1">
          <mxGeometry x="1710" y="2480" width="30" height="60" as="geometry" />
        </mxCell>
        <mxCell id="dRWtWInUFrxZpv6eShJe-199" style="edgeStyle=none;curved=1;rounded=0;orthogonalLoop=1;jettySize=auto;html=1;exitX=0.5;exitY=0;exitDx=0;exitDy=0;exitPerimeter=0;entryX=0.5;entryY=1;entryDx=0;entryDy=0;fontSize=12;startSize=8;endSize=8;" parent="1" source="dRWtWInUFrxZpv6eShJe-196" target="dRWtWInUFrxZpv6eShJe-184" edge="1">
          <mxGeometry relative="1" as="geometry" />
        </mxCell>
        <mxCell id="dRWtWInUFrxZpv6eShJe-196" value="funcionarios" style="shape=umlActor;verticalLabelPosition=bottom;verticalAlign=top;html=1;outlineConnect=0;fontSize=16;" parent="1" vertex="1">
          <mxGeometry x="1230" y="2810" width="30" height="60" as="geometry" />
        </mxCell>
      </root>
    </mxGraphModel>
  </diagram>
  <diagram id="iVHGLfu5PcY8TfAMwNuf" name="Página-2">
    <mxGraphModel dx="1941" dy="616" grid="1" gridSize="10" guides="1" tooltips="1" connect="1" arrows="1" fold="1" page="1" pageScale="1" pageWidth="827" pageHeight="1169" math="0" shadow="0">
      <root>
        <mxCell id="0" />
        <mxCell id="1" parent="0" />
        <mxCell id="dV5Q2d8vccplwf9JfN2m-1" value="Cliente" style="shape=umlActor;verticalLabelPosition=bottom;verticalAlign=top;html=1;outlineConnect=0;" vertex="1" parent="1">
          <mxGeometry y="100" width="50" height="70" as="geometry" />
        </mxCell>
        <mxCell id="dV5Q2d8vccplwf9JfN2m-2" value="Sistema" style="rounded=1;whiteSpace=wrap;html=1;" vertex="1" parent="1">
          <mxGeometry x="294" y="10" width="120" height="40" as="geometry" />
        </mxCell>
        <mxCell id="dV5Q2d8vccplwf9JfN2m-3" value="Site" style="rounded=1;whiteSpace=wrap;html=1;" vertex="1" parent="1">
          <mxGeometry x="130" y="10" width="120" height="40" as="geometry" />
        </mxCell>
        <mxCell id="dV5Q2d8vccplwf9JfN2m-6" value="" style="endArrow=none;dashed=1;html=1;dashPattern=1 3;strokeWidth=2;rounded=0;entryX=0.5;entryY=1;entryDx=0;entryDy=0;" edge="1" parent="1" target="dV5Q2d8vccplwf9JfN2m-2">
          <mxGeometry width="50" height="50" relative="1" as="geometry">
            <mxPoint x="360" y="390" as="sourcePoint" />
            <mxPoint x="440" y="190" as="targetPoint" />
          </mxGeometry>
        </mxCell>
        <mxCell id="dV5Q2d8vccplwf9JfN2m-7" value="" style="endArrow=none;dashed=1;html=1;dashPattern=1 3;strokeWidth=2;rounded=0;entryX=0.5;entryY=1;entryDx=0;entryDy=0;" edge="1" parent="1" target="dV5Q2d8vccplwf9JfN2m-3">
          <mxGeometry width="50" height="50" relative="1" as="geometry">
            <mxPoint x="190" y="390" as="sourcePoint" />
            <mxPoint x="210" y="140" as="targetPoint" />
          </mxGeometry>
        </mxCell>
        <mxCell id="dV5Q2d8vccplwf9JfN2m-8" value="" style="endArrow=classic;html=1;rounded=0;" edge="1" parent="1">
          <mxGeometry width="50" height="50" relative="1" as="geometry">
            <mxPoint x="60" y="140" as="sourcePoint" />
            <mxPoint x="180" y="140" as="targetPoint" />
          </mxGeometry>
        </mxCell>
        <mxCell id="dV5Q2d8vccplwf9JfN2m-9" value="consulta ()" style="text;html=1;align=center;verticalAlign=middle;resizable=0;points=[];autosize=1;strokeColor=none;fillColor=none;" vertex="1" parent="1">
          <mxGeometry x="70" y="110" width="80" height="30" as="geometry" />
        </mxCell>
        <mxCell id="dV5Q2d8vccplwf9JfN2m-10" value="" style="endArrow=classic;html=1;rounded=0;" edge="1" parent="1">
          <mxGeometry width="50" height="50" relative="1" as="geometry">
            <mxPoint x="200" y="160" as="sourcePoint" />
            <mxPoint x="340" y="160" as="targetPoint" />
          </mxGeometry>
        </mxCell>
        <mxCell id="dV5Q2d8vccplwf9JfN2m-11" value="Verificar Disponibilidade ()" style="text;html=1;align=center;verticalAlign=middle;resizable=0;points=[];autosize=1;strokeColor=none;fillColor=none;" vertex="1" parent="1">
          <mxGeometry x="195" y="130" width="160" height="30" as="geometry" />
        </mxCell>
        <mxCell id="dV5Q2d8vccplwf9JfN2m-12" value="" style="endArrow=classic;html=1;rounded=0;" edge="1" parent="1">
          <mxGeometry width="50" height="50" relative="1" as="geometry">
            <mxPoint x="340" y="220" as="sourcePoint" />
            <mxPoint x="50" y="220" as="targetPoint" />
          </mxGeometry>
        </mxCell>
        <mxCell id="dV5Q2d8vccplwf9JfN2m-13" value="Lista voos On ()" style="text;html=1;strokeColor=none;fillColor=none;align=center;verticalAlign=middle;whiteSpace=wrap;rounded=0;" vertex="1" parent="1">
          <mxGeometry x="230" y="190" width="90" height="30" as="geometry" />
        </mxCell>
        <mxCell id="dV5Q2d8vccplwf9JfN2m-14" value="" style="endArrow=none;dashed=1;html=1;dashPattern=1 3;strokeWidth=2;rounded=0;" edge="1" parent="1">
          <mxGeometry width="50" height="50" relative="1" as="geometry">
            <mxPoint x="30" y="390" as="sourcePoint" />
            <mxPoint x="30" y="200" as="targetPoint" />
          </mxGeometry>
        </mxCell>
        <mxCell id="dV5Q2d8vccplwf9JfN2m-15" value="" style="endArrow=classic;html=1;rounded=0;" edge="1" parent="1">
          <mxGeometry width="50" height="50" relative="1" as="geometry">
            <mxPoint x="40" y="280" as="sourcePoint" />
            <mxPoint x="190" y="280" as="targetPoint" />
          </mxGeometry>
        </mxCell>
        <mxCell id="dV5Q2d8vccplwf9JfN2m-16" value="SelecionaVoo()" style="text;html=1;strokeColor=none;fillColor=none;align=center;verticalAlign=middle;whiteSpace=wrap;rounded=0;" vertex="1" parent="1">
          <mxGeometry x="80" y="250" width="60" height="30" as="geometry" />
        </mxCell>
        <mxCell id="dV5Q2d8vccplwf9JfN2m-17" value="" style="endArrow=classic;html=1;rounded=0;" edge="1" parent="1">
          <mxGeometry width="50" height="50" relative="1" as="geometry">
            <mxPoint x="200" y="320" as="sourcePoint" />
            <mxPoint x="350" y="320" as="targetPoint" />
          </mxGeometry>
        </mxCell>
        <mxCell id="dV5Q2d8vccplwf9JfN2m-18" value="reserva ()" style="text;html=1;align=center;verticalAlign=middle;resizable=0;points=[];autosize=1;strokeColor=none;fillColor=none;" vertex="1" parent="1">
          <mxGeometry x="230" y="290" width="70" height="30" as="geometry" />
        </mxCell>
        <mxCell id="dV5Q2d8vccplwf9JfN2m-19" value="" style="endArrow=classic;html=1;rounded=0;" edge="1" parent="1">
          <mxGeometry width="50" height="50" relative="1" as="geometry">
            <mxPoint x="180" y="360" as="sourcePoint" />
            <mxPoint x="40" y="360" as="targetPoint" />
          </mxGeometry>
        </mxCell>
        <mxCell id="dV5Q2d8vccplwf9JfN2m-20" value="Confirmação" style="text;html=1;strokeColor=none;fillColor=none;align=center;verticalAlign=middle;whiteSpace=wrap;rounded=0;" vertex="1" parent="1">
          <mxGeometry x="80" y="330" width="60" height="30" as="geometry" />
        </mxCell>
        <mxCell id="dV5Q2d8vccplwf9JfN2m-21" value="&lt;font style=&quot;font-size: 40px;&quot;&gt;1)&lt;/font&gt;" style="text;html=1;strokeColor=none;fillColor=none;align=center;verticalAlign=middle;whiteSpace=wrap;rounded=0;" vertex="1" parent="1">
          <mxGeometry x="-40" width="150" height="90" as="geometry" />
        </mxCell>
        <mxCell id="dV5Q2d8vccplwf9JfN2m-22" value="Cliente" style="shape=umlActor;verticalLabelPosition=bottom;verticalAlign=top;html=1;outlineConnect=0;" vertex="1" parent="1">
          <mxGeometry x="10" y="500" width="50" height="70" as="geometry" />
        </mxCell>
        <mxCell id="dV5Q2d8vccplwf9JfN2m-23" value="" style="endArrow=none;dashed=1;html=1;dashPattern=1 3;strokeWidth=2;rounded=0;" edge="1" parent="1">
          <mxGeometry width="50" height="50" relative="1" as="geometry">
            <mxPoint x="35" y="850" as="sourcePoint" />
            <mxPoint x="34.5" y="590" as="targetPoint" />
          </mxGeometry>
        </mxCell>
        <mxCell id="dV5Q2d8vccplwf9JfN2m-26" value="Caixa" style="rounded=1;whiteSpace=wrap;html=1;" vertex="1" parent="1">
          <mxGeometry x="140" y="450" width="120" height="40" as="geometry" />
        </mxCell>
        <mxCell id="dV5Q2d8vccplwf9JfN2m-27" value="Sistema" style="rounded=1;whiteSpace=wrap;html=1;" vertex="1" parent="1">
          <mxGeometry x="340" y="450" width="120" height="40" as="geometry" />
        </mxCell>
        <mxCell id="dV5Q2d8vccplwf9JfN2m-28" value="" style="endArrow=none;dashed=1;html=1;dashPattern=1 3;strokeWidth=2;rounded=0;entryX=0.5;entryY=1;entryDx=0;entryDy=0;" edge="1" parent="1" target="dV5Q2d8vccplwf9JfN2m-26">
          <mxGeometry width="50" height="50" relative="1" as="geometry">
            <mxPoint x="200" y="850" as="sourcePoint" />
            <mxPoint x="225" y="540" as="targetPoint" />
          </mxGeometry>
        </mxCell>
        <mxCell id="dV5Q2d8vccplwf9JfN2m-29" value="" style="endArrow=none;dashed=1;html=1;dashPattern=1 3;strokeWidth=2;rounded=0;entryX=0.5;entryY=1;entryDx=0;entryDy=0;" edge="1" parent="1">
          <mxGeometry width="50" height="50" relative="1" as="geometry">
            <mxPoint x="410" y="850" as="sourcePoint" />
            <mxPoint x="409.5" y="490" as="targetPoint" />
          </mxGeometry>
        </mxCell>
        <mxCell id="dV5Q2d8vccplwf9JfN2m-30" value="" style="endArrow=classic;html=1;rounded=0;" edge="1" parent="1">
          <mxGeometry width="50" height="50" relative="1" as="geometry">
            <mxPoint x="210" y="660" as="sourcePoint" />
            <mxPoint x="390" y="660" as="targetPoint" />
          </mxGeometry>
        </mxCell>
        <mxCell id="dV5Q2d8vccplwf9JfN2m-31" value="" style="endArrow=classic;html=1;rounded=0;" edge="1" parent="1">
          <mxGeometry width="50" height="50" relative="1" as="geometry">
            <mxPoint x="400" y="720" as="sourcePoint" />
            <mxPoint x="210" y="720" as="targetPoint" />
          </mxGeometry>
        </mxCell>
        <mxCell id="dV5Q2d8vccplwf9JfN2m-32" value="" style="endArrow=classic;html=1;rounded=0;" edge="1" parent="1">
          <mxGeometry width="50" height="50" relative="1" as="geometry">
            <mxPoint x="40" y="630" as="sourcePoint" />
            <mxPoint x="190" y="630" as="targetPoint" />
          </mxGeometry>
        </mxCell>
        <mxCell id="dV5Q2d8vccplwf9JfN2m-33" value="&lt;font style=&quot;font-size: 40px;&quot;&gt;2)&lt;/font&gt;" style="text;html=1;strokeColor=none;fillColor=none;align=center;verticalAlign=middle;whiteSpace=wrap;rounded=0;" vertex="1" parent="1">
          <mxGeometry x="15" y="450" width="60" height="30" as="geometry" />
        </mxCell>
        <mxCell id="dV5Q2d8vccplwf9JfN2m-34" value="Inserir cartao ()" style="text;html=1;align=center;verticalAlign=middle;resizable=0;points=[];autosize=1;strokeColor=none;fillColor=none;" vertex="1" parent="1">
          <mxGeometry x="60" y="600" width="100" height="30" as="geometry" />
        </mxCell>
        <mxCell id="dV5Q2d8vccplwf9JfN2m-35" value="Digitar a senha" style="text;html=1;strokeColor=none;fillColor=none;align=center;verticalAlign=middle;whiteSpace=wrap;rounded=0;" vertex="1" parent="1">
          <mxGeometry x="250" y="630" width="100" height="30" as="geometry" />
        </mxCell>
        <mxCell id="dV5Q2d8vccplwf9JfN2m-36" value="Verifica cartao e senha ()" style="text;html=1;strokeColor=none;fillColor=none;align=center;verticalAlign=middle;whiteSpace=wrap;rounded=0;" vertex="1" parent="1">
          <mxGeometry x="230" y="690" width="145" height="30" as="geometry" />
        </mxCell>
        <mxCell id="dV5Q2d8vccplwf9JfN2m-37" value="" style="endArrow=classic;html=1;rounded=0;" edge="1" parent="1">
          <mxGeometry width="50" height="50" relative="1" as="geometry">
            <mxPoint x="190" y="760" as="sourcePoint" />
            <mxPoint x="50" y="760" as="targetPoint" />
          </mxGeometry>
        </mxCell>
        <mxCell id="dV5Q2d8vccplwf9JfN2m-38" value="sacar ou consultar saldo" style="text;html=1;strokeColor=none;fillColor=none;align=center;verticalAlign=middle;whiteSpace=wrap;rounded=0;" vertex="1" parent="1">
          <mxGeometry x="40" y="730" width="150" height="30" as="geometry" />
        </mxCell>
        <mxCell id="dV5Q2d8vccplwf9JfN2m-39" value="" style="endArrow=classic;html=1;rounded=0;" edge="1" parent="1">
          <mxGeometry width="50" height="50" relative="1" as="geometry">
            <mxPoint x="50" y="820" as="sourcePoint" />
            <mxPoint x="400" y="820" as="targetPoint" />
            <Array as="points" />
          </mxGeometry>
        </mxCell>
        <mxCell id="dV5Q2d8vccplwf9JfN2m-40" value="Executar a operação" style="text;html=1;strokeColor=none;fillColor=none;align=center;verticalAlign=middle;whiteSpace=wrap;rounded=0;" vertex="1" parent="1">
          <mxGeometry x="230" y="790" width="120" height="30" as="geometry" />
        </mxCell>
        <mxCell id="dV5Q2d8vccplwf9JfN2m-41" value="Cliente" style="shape=umlActor;verticalLabelPosition=bottom;verticalAlign=top;html=1;outlineConnect=0;" vertex="1" parent="1">
          <mxGeometry x="10" y="1010" width="50" height="70" as="geometry" />
        </mxCell>
        <mxCell id="dV5Q2d8vccplwf9JfN2m-42" value="&lt;font style=&quot;font-size: 40px;&quot;&gt;3)&lt;/font&gt;" style="text;html=1;strokeColor=none;fillColor=none;align=center;verticalAlign=middle;whiteSpace=wrap;rounded=0;" vertex="1" parent="1">
          <mxGeometry x="20" y="950" width="60" height="30" as="geometry" />
        </mxCell>
        <mxCell id="dV5Q2d8vccplwf9JfN2m-43" value="Sistema" style="rounded=1;whiteSpace=wrap;html=1;" vertex="1" parent="1">
          <mxGeometry x="310" y="930" width="130" height="40" as="geometry" />
        </mxCell>
        <mxCell id="dV5Q2d8vccplwf9JfN2m-44" value="Site" style="rounded=1;whiteSpace=wrap;html=1;" vertex="1" parent="1">
          <mxGeometry x="120" y="930" width="130" height="40" as="geometry" />
        </mxCell>
        <mxCell id="dV5Q2d8vccplwf9JfN2m-46" value="" style="endArrow=none;dashed=1;html=1;dashPattern=1 3;strokeWidth=2;rounded=0;entryX=0.5;entryY=1;entryDx=0;entryDy=0;" edge="1" parent="1">
          <mxGeometry width="50" height="50" relative="1" as="geometry">
            <mxPoint x="380" y="1480" as="sourcePoint" />
            <mxPoint x="380" y="970" as="targetPoint" />
          </mxGeometry>
        </mxCell>
        <mxCell id="dV5Q2d8vccplwf9JfN2m-47" value="" style="endArrow=none;dashed=1;html=1;dashPattern=1 3;strokeWidth=2;rounded=0;entryX=0.5;entryY=1;entryDx=0;entryDy=0;" edge="1" parent="1">
          <mxGeometry width="50" height="50" relative="1" as="geometry">
            <mxPoint x="185" y="1480" as="sourcePoint" />
            <mxPoint x="184.5" y="970" as="targetPoint" />
          </mxGeometry>
        </mxCell>
        <mxCell id="dV5Q2d8vccplwf9JfN2m-48" value="" style="endArrow=none;dashed=1;html=1;dashPattern=1 3;strokeWidth=2;rounded=0;" edge="1" parent="1">
          <mxGeometry width="50" height="50" relative="1" as="geometry">
            <mxPoint x="35" y="1480" as="sourcePoint" />
            <mxPoint x="35" y="1110" as="targetPoint" />
          </mxGeometry>
        </mxCell>
        <mxCell id="dV5Q2d8vccplwf9JfN2m-49" value="" style="endArrow=classic;html=1;rounded=0;" edge="1" parent="1">
          <mxGeometry width="50" height="50" relative="1" as="geometry">
            <mxPoint x="40" y="1150" as="sourcePoint" />
            <mxPoint x="180" y="1150" as="targetPoint" />
          </mxGeometry>
        </mxCell>
        <mxCell id="dV5Q2d8vccplwf9JfN2m-50" value="pesquisar produto" style="text;html=1;strokeColor=none;fillColor=none;align=center;verticalAlign=middle;whiteSpace=wrap;rounded=0;" vertex="1" parent="1">
          <mxGeometry x="60" y="1120" width="100" height="30" as="geometry" />
        </mxCell>
        <mxCell id="dV5Q2d8vccplwf9JfN2m-51" value="" style="endArrow=classic;html=1;rounded=0;" edge="1" parent="1">
          <mxGeometry width="50" height="50" relative="1" as="geometry">
            <mxPoint x="195" y="1180" as="sourcePoint" />
            <mxPoint x="365" y="1180" as="targetPoint" />
          </mxGeometry>
        </mxCell>
        <mxCell id="dV5Q2d8vccplwf9JfN2m-52" value="lista de opções" style="text;html=1;strokeColor=none;fillColor=none;align=center;verticalAlign=middle;whiteSpace=wrap;rounded=0;" vertex="1" parent="1">
          <mxGeometry x="245" y="1150" width="85" height="30" as="geometry" />
        </mxCell>
        <mxCell id="dV5Q2d8vccplwf9JfN2m-53" value="" style="endArrow=classic;html=1;rounded=0;" edge="1" parent="1">
          <mxGeometry width="50" height="50" relative="1" as="geometry">
            <mxPoint x="40" y="1230" as="sourcePoint" />
            <mxPoint x="180" y="1230" as="targetPoint" />
          </mxGeometry>
        </mxCell>
        <mxCell id="dV5Q2d8vccplwf9JfN2m-54" value="Seleciona o produto" style="text;html=1;strokeColor=none;fillColor=none;align=center;verticalAlign=middle;whiteSpace=wrap;rounded=0;" vertex="1" parent="1">
          <mxGeometry x="50" y="1200" width="120" height="30" as="geometry" />
        </mxCell>
        <mxCell id="dV5Q2d8vccplwf9JfN2m-56" value="Verifica a disponibilidade" style="text;html=1;strokeColor=none;fillColor=none;align=center;verticalAlign=middle;whiteSpace=wrap;rounded=0;" vertex="1" parent="1">
          <mxGeometry x="205" y="1250" width="140" height="30" as="geometry" />
        </mxCell>
        <mxCell id="dV5Q2d8vccplwf9JfN2m-57" value="" style="endArrow=classic;html=1;rounded=0;" edge="1" parent="1">
          <mxGeometry width="50" height="50" relative="1" as="geometry">
            <mxPoint x="370" y="1290" as="sourcePoint" />
            <mxPoint x="200" y="1290" as="targetPoint" />
          </mxGeometry>
        </mxCell>
        <mxCell id="dV5Q2d8vccplwf9JfN2m-58" value="" style="endArrow=classic;html=1;rounded=0;" edge="1" parent="1">
          <mxGeometry width="50" height="50" relative="1" as="geometry">
            <mxPoint x="370" y="1470" as="sourcePoint" />
            <mxPoint x="50" y="1470" as="targetPoint" />
          </mxGeometry>
        </mxCell>
        <mxCell id="dV5Q2d8vccplwf9JfN2m-59" value="finaliza a compra" style="text;html=1;strokeColor=none;fillColor=none;align=center;verticalAlign=middle;whiteSpace=wrap;rounded=0;" vertex="1" parent="1">
          <mxGeometry x="210" y="1440" width="130" height="30" as="geometry" />
        </mxCell>
        <mxCell id="dV5Q2d8vccplwf9JfN2m-60" value="" style="endArrow=classic;html=1;rounded=0;" edge="1" parent="1">
          <mxGeometry width="50" height="50" relative="1" as="geometry">
            <mxPoint x="35" y="1420" as="sourcePoint" />
            <mxPoint x="175" y="1420" as="targetPoint" />
          </mxGeometry>
        </mxCell>
        <mxCell id="dV5Q2d8vccplwf9JfN2m-61" value="escolhe as opções" style="text;html=1;strokeColor=none;fillColor=none;align=center;verticalAlign=middle;whiteSpace=wrap;rounded=0;" vertex="1" parent="1">
          <mxGeometry x="35" y="1390" width="150" height="30" as="geometry" />
        </mxCell>
        <mxCell id="dV5Q2d8vccplwf9JfN2m-63" value="opções de pagamento e entrega" style="text;html=1;strokeColor=none;fillColor=none;align=center;verticalAlign=middle;whiteSpace=wrap;rounded=0;" vertex="1" parent="1">
          <mxGeometry x="190" y="1330" width="150" height="30" as="geometry" />
        </mxCell>
        <mxCell id="dV5Q2d8vccplwf9JfN2m-64" value="" style="endArrow=classic;html=1;rounded=0;" edge="1" parent="1">
          <mxGeometry width="50" height="50" relative="1" as="geometry">
            <mxPoint x="360" y="1370" as="sourcePoint" />
            <mxPoint x="50" y="1370" as="targetPoint" />
          </mxGeometry>
        </mxCell>
        <mxCell id="dV5Q2d8vccplwf9JfN2m-65" value="Gerente" style="shape=umlActor;verticalLabelPosition=bottom;verticalAlign=top;html=1;outlineConnect=0;" vertex="1" parent="1">
          <mxGeometry x="20" y="1690" width="50" height="60" as="geometry" />
        </mxCell>
        <mxCell id="dV5Q2d8vccplwf9JfN2m-66" value="" style="endArrow=none;dashed=1;html=1;dashPattern=1 3;strokeWidth=2;rounded=0;" edge="1" parent="1">
          <mxGeometry width="50" height="50" relative="1" as="geometry">
            <mxPoint x="40" y="2160" as="sourcePoint" />
            <mxPoint x="40" y="1780" as="targetPoint" />
          </mxGeometry>
        </mxCell>
        <mxCell id="dV5Q2d8vccplwf9JfN2m-67" value="&lt;font style=&quot;font-size: 40px;&quot;&gt;4)&lt;/font&gt;" style="text;html=1;strokeColor=none;fillColor=none;align=center;verticalAlign=middle;whiteSpace=wrap;rounded=0;" vertex="1" parent="1">
          <mxGeometry x="20" y="1630" width="60" height="30" as="geometry" />
        </mxCell>
        <mxCell id="dV5Q2d8vccplwf9JfN2m-71" value="Sistema" style="rounded=1;whiteSpace=wrap;html=1;" vertex="1" parent="1">
          <mxGeometry x="150" y="1600" width="130" height="40" as="geometry" />
        </mxCell>
        <mxCell id="dV5Q2d8vccplwf9JfN2m-72" value="" style="endArrow=none;dashed=1;html=1;dashPattern=1 3;strokeWidth=2;rounded=0;" edge="1" parent="1">
          <mxGeometry width="50" height="50" relative="1" as="geometry">
            <mxPoint x="220" y="2160" as="sourcePoint" />
            <mxPoint x="220" y="1640" as="targetPoint" />
          </mxGeometry>
        </mxCell>
        <mxCell id="dV5Q2d8vccplwf9JfN2m-74" value="" style="endArrow=classic;html=1;rounded=0;" edge="1" parent="1">
          <mxGeometry width="50" height="50" relative="1" as="geometry">
            <mxPoint x="50" y="1810" as="sourcePoint" />
            <mxPoint x="200" y="1810" as="targetPoint" />
          </mxGeometry>
        </mxCell>
        <mxCell id="dV5Q2d8vccplwf9JfN2m-75" value="criar projeto" style="text;html=1;strokeColor=none;fillColor=none;align=center;verticalAlign=middle;whiteSpace=wrap;rounded=0;" vertex="1" parent="1">
          <mxGeometry x="75" y="1780" width="90" height="30" as="geometry" />
        </mxCell>
        <mxCell id="dV5Q2d8vccplwf9JfN2m-76" value="" style="endArrow=classic;html=1;rounded=0;" edge="1" parent="1">
          <mxGeometry width="50" height="50" relative="1" as="geometry">
            <mxPoint x="50" y="1860" as="sourcePoint" />
            <mxPoint x="200" y="1860" as="targetPoint" />
          </mxGeometry>
        </mxCell>
        <mxCell id="dV5Q2d8vccplwf9JfN2m-78" value="adiciona tarefa" style="text;html=1;strokeColor=none;fillColor=none;align=center;verticalAlign=middle;whiteSpace=wrap;rounded=0;" vertex="1" parent="1">
          <mxGeometry x="85" y="1830" width="85" height="30" as="geometry" />
        </mxCell>
        <mxCell id="dV5Q2d8vccplwf9JfN2m-79" value="" style="endArrow=classic;html=1;rounded=0;" edge="1" parent="1">
          <mxGeometry width="50" height="50" relative="1" as="geometry">
            <mxPoint x="50" y="1910" as="sourcePoint" />
            <mxPoint x="200" y="1910" as="targetPoint" />
          </mxGeometry>
        </mxCell>
        <mxCell id="dV5Q2d8vccplwf9JfN2m-80" value="adiciona Responsavel" style="text;html=1;strokeColor=none;fillColor=none;align=center;verticalAlign=middle;whiteSpace=wrap;rounded=0;" vertex="1" parent="1">
          <mxGeometry x="65" y="1880" width="120" height="30" as="geometry" />
        </mxCell>
        <mxCell id="dV5Q2d8vccplwf9JfN2m-81" value="" style="endArrow=classic;html=1;rounded=0;" edge="1" parent="1">
          <mxGeometry width="50" height="50" relative="1" as="geometry">
            <mxPoint x="210" y="1960" as="sourcePoint" />
            <mxPoint x="50" y="1960" as="targetPoint" />
          </mxGeometry>
        </mxCell>
        <mxCell id="dV5Q2d8vccplwf9JfN2m-82" value="Exibe data Inico e Termino" style="text;html=1;strokeColor=none;fillColor=none;align=center;verticalAlign=middle;whiteSpace=wrap;rounded=0;" vertex="1" parent="1">
          <mxGeometry x="50" y="1930" width="160" height="30" as="geometry" />
        </mxCell>
        <mxCell id="dV5Q2d8vccplwf9JfN2m-83" value="" style="endArrow=classic;html=1;rounded=0;" edge="1" parent="1">
          <mxGeometry width="50" height="50" relative="1" as="geometry">
            <mxPoint x="200" y="2000" as="sourcePoint" />
            <mxPoint x="50" y="2000" as="targetPoint" />
          </mxGeometry>
        </mxCell>
        <mxCell id="dV5Q2d8vccplwf9JfN2m-85" value="Exibe Responsavel" style="text;html=1;strokeColor=none;fillColor=none;align=center;verticalAlign=middle;whiteSpace=wrap;rounded=0;" vertex="1" parent="1">
          <mxGeometry x="75" y="1970" width="110" height="30" as="geometry" />
        </mxCell>
        <mxCell id="dV5Q2d8vccplwf9JfN2m-86" value="" style="endArrow=classic;html=1;rounded=0;" edge="1" parent="1">
          <mxGeometry width="50" height="50" relative="1" as="geometry">
            <mxPoint x="200" y="2050" as="sourcePoint" />
            <mxPoint x="50" y="2050" as="targetPoint" />
          </mxGeometry>
        </mxCell>
        <mxCell id="dV5Q2d8vccplwf9JfN2m-87" value="atualiza" style="text;html=1;strokeColor=none;fillColor=none;align=center;verticalAlign=middle;whiteSpace=wrap;rounded=0;" vertex="1" parent="1">
          <mxGeometry x="90" y="2020" width="60" height="30" as="geometry" />
        </mxCell>
        <mxCell id="dV5Q2d8vccplwf9JfN2m-88" value="Cliente" style="shape=umlActor;verticalLabelPosition=bottom;verticalAlign=top;html=1;outlineConnect=0;" vertex="1" parent="1">
          <mxGeometry x="15" y="2430" width="40" height="60" as="geometry" />
        </mxCell>
        <mxCell id="dV5Q2d8vccplwf9JfN2m-89" value="&lt;font style=&quot;font-size: 40px;&quot;&gt;5)&lt;/font&gt;" style="text;html=1;strokeColor=none;fillColor=none;align=center;verticalAlign=middle;whiteSpace=wrap;rounded=0;" vertex="1" parent="1">
          <mxGeometry x="15" y="2370" width="60" height="30" as="geometry" />
        </mxCell>
        <mxCell id="dV5Q2d8vccplwf9JfN2m-90" value="Sistema" style="rounded=1;whiteSpace=wrap;html=1;" vertex="1" parent="1">
          <mxGeometry x="150" y="2370" width="130" height="40" as="geometry" />
        </mxCell>
        <mxCell id="dV5Q2d8vccplwf9JfN2m-91" value="" style="endArrow=none;dashed=1;html=1;dashPattern=1 3;strokeWidth=2;rounded=0;" edge="1" parent="1">
          <mxGeometry width="50" height="50" relative="1" as="geometry">
            <mxPoint x="215" y="3040" as="sourcePoint" />
            <mxPoint x="214.5" y="2410" as="targetPoint" />
          </mxGeometry>
        </mxCell>
        <mxCell id="dV5Q2d8vccplwf9JfN2m-92" value="" style="endArrow=none;dashed=1;html=1;dashPattern=1 3;strokeWidth=2;rounded=0;" edge="1" parent="1">
          <mxGeometry width="50" height="50" relative="1" as="geometry">
            <mxPoint x="35" y="3030" as="sourcePoint" />
            <mxPoint x="35" y="2510" as="targetPoint" />
          </mxGeometry>
        </mxCell>
        <mxCell id="dV5Q2d8vccplwf9JfN2m-93" value="Empresa" style="rounded=1;whiteSpace=wrap;html=1;" vertex="1" parent="1">
          <mxGeometry x="370" y="2370" width="130" height="40" as="geometry" />
        </mxCell>
        <mxCell id="dV5Q2d8vccplwf9JfN2m-94" value="" style="endArrow=none;dashed=1;html=1;dashPattern=1 3;strokeWidth=2;rounded=0;" edge="1" parent="1">
          <mxGeometry width="50" height="50" relative="1" as="geometry">
            <mxPoint x="440" y="3030" as="sourcePoint" />
            <mxPoint x="440" y="2410" as="targetPoint" />
          </mxGeometry>
        </mxCell>
        <mxCell id="dV5Q2d8vccplwf9JfN2m-95" value="Atendente" style="shape=umlActor;verticalLabelPosition=bottom;verticalAlign=top;html=1;outlineConnect=0;" vertex="1" parent="1">
          <mxGeometry x="580" y="2440" width="40" height="60" as="geometry" />
        </mxCell>
        <mxCell id="dV5Q2d8vccplwf9JfN2m-96" value="" style="endArrow=none;dashed=1;html=1;dashPattern=1 3;strokeWidth=2;rounded=0;" edge="1" parent="1">
          <mxGeometry width="50" height="50" relative="1" as="geometry">
            <mxPoint x="599.5" y="3040" as="sourcePoint" />
            <mxPoint x="599.5" y="2520" as="targetPoint" />
          </mxGeometry>
        </mxCell>
        <mxCell id="dV5Q2d8vccplwf9JfN2m-97" value="" style="endArrow=classic;html=1;rounded=0;" edge="1" parent="1">
          <mxGeometry width="50" height="50" relative="1" as="geometry">
            <mxPoint x="50" y="2570" as="sourcePoint" />
            <mxPoint x="200" y="2570" as="targetPoint" />
          </mxGeometry>
        </mxCell>
        <mxCell id="dV5Q2d8vccplwf9JfN2m-98" value="Ligação()" style="text;html=1;strokeColor=none;fillColor=none;align=center;verticalAlign=middle;whiteSpace=wrap;rounded=0;" vertex="1" parent="1">
          <mxGeometry x="90" y="2540" width="60" height="30" as="geometry" />
        </mxCell>
        <mxCell id="dV5Q2d8vccplwf9JfN2m-99" value="" style="endArrow=classic;html=1;rounded=0;" edge="1" parent="1">
          <mxGeometry width="50" height="50" relative="1" as="geometry">
            <mxPoint x="240" y="2600" as="sourcePoint" />
            <mxPoint x="420" y="2600" as="targetPoint" />
          </mxGeometry>
        </mxCell>
        <mxCell id="dV5Q2d8vccplwf9JfN2m-100" value="Verificar ()" style="text;html=1;strokeColor=none;fillColor=none;align=center;verticalAlign=middle;whiteSpace=wrap;rounded=0;" vertex="1" parent="1">
          <mxGeometry x="295" y="2570" width="60" height="30" as="geometry" />
        </mxCell>
        <mxCell id="dV5Q2d8vccplwf9JfN2m-101" value="" style="endArrow=classic;html=1;rounded=0;" edge="1" parent="1">
          <mxGeometry width="50" height="50" relative="1" as="geometry">
            <mxPoint x="590" y="2640" as="sourcePoint" />
            <mxPoint x="460" y="2640" as="targetPoint" />
          </mxGeometry>
        </mxCell>
        <mxCell id="dV5Q2d8vccplwf9JfN2m-103" value="Informa()" style="text;html=1;strokeColor=none;fillColor=none;align=center;verticalAlign=middle;whiteSpace=wrap;rounded=0;" vertex="1" parent="1">
          <mxGeometry x="490" y="2610" width="60" height="30" as="geometry" />
        </mxCell>
        <mxCell id="dV5Q2d8vccplwf9JfN2m-104" value="" style="endArrow=classic;html=1;rounded=0;" edge="1" parent="1">
          <mxGeometry width="50" height="50" relative="1" as="geometry">
            <mxPoint x="220" y="2740" as="sourcePoint" />
            <mxPoint x="580" y="2740" as="targetPoint" />
          </mxGeometry>
        </mxCell>
        <mxCell id="dV5Q2d8vccplwf9JfN2m-105" value="Sem solução()" style="text;html=1;strokeColor=none;fillColor=none;align=center;verticalAlign=middle;whiteSpace=wrap;rounded=0;" vertex="1" parent="1">
          <mxGeometry x="280" y="2710" width="90" height="30" as="geometry" />
        </mxCell>
        <mxCell id="dV5Q2d8vccplwf9JfN2m-106" value="" style="endArrow=classic;html=1;rounded=0;" edge="1" parent="1">
          <mxGeometry width="50" height="50" relative="1" as="geometry">
            <mxPoint x="590" y="2810" as="sourcePoint" />
            <mxPoint x="460" y="2810" as="targetPoint" />
          </mxGeometry>
        </mxCell>
        <mxCell id="dV5Q2d8vccplwf9JfN2m-107" value="Registra()" style="text;html=1;strokeColor=none;fillColor=none;align=center;verticalAlign=middle;whiteSpace=wrap;rounded=0;" vertex="1" parent="1">
          <mxGeometry x="500" y="2780" width="60" height="30" as="geometry" />
        </mxCell>
        <mxCell id="dV5Q2d8vccplwf9JfN2m-108" value="" style="endArrow=classic;html=1;rounded=0;" edge="1" parent="1">
          <mxGeometry width="50" height="50" relative="1" as="geometry">
            <mxPoint x="420" y="2870" as="sourcePoint" />
            <mxPoint x="230" y="2870" as="targetPoint" />
          </mxGeometry>
        </mxCell>
        <mxCell id="dV5Q2d8vccplwf9JfN2m-109" value="Envia ao sistema" style="text;html=1;strokeColor=none;fillColor=none;align=center;verticalAlign=middle;whiteSpace=wrap;rounded=0;" vertex="1" parent="1">
          <mxGeometry x="280" y="2840" width="110" height="30" as="geometry" />
        </mxCell>
        <mxCell id="dV5Q2d8vccplwf9JfN2m-110" value="" style="endArrow=classic;html=1;rounded=0;" edge="1" parent="1">
          <mxGeometry width="50" height="50" relative="1" as="geometry">
            <mxPoint x="200" y="2920" as="sourcePoint" />
            <mxPoint x="40" y="2920" as="targetPoint" />
          </mxGeometry>
        </mxCell>
        <mxCell id="dV5Q2d8vccplwf9JfN2m-112" value="Confirma" style="text;html=1;strokeColor=none;fillColor=none;align=center;verticalAlign=middle;whiteSpace=wrap;rounded=0;" vertex="1" parent="1">
          <mxGeometry x="85" y="2893" width="60" height="30" as="geometry" />
        </mxCell>
        <mxCell id="dV5Q2d8vccplwf9JfN2m-113" value="" style="endArrow=classic;html=1;rounded=0;" edge="1" parent="1">
          <mxGeometry width="50" height="50" relative="1" as="geometry">
            <mxPoint x="40" y="3000" as="sourcePoint" />
            <mxPoint x="200" y="3000" as="targetPoint" />
          </mxGeometry>
        </mxCell>
        <mxCell id="dV5Q2d8vccplwf9JfN2m-114" value="Acompanha o status" style="text;html=1;strokeColor=none;fillColor=none;align=center;verticalAlign=middle;whiteSpace=wrap;rounded=0;" vertex="1" parent="1">
          <mxGeometry x="55" y="2970" width="130" height="30" as="geometry" />
        </mxCell>
      </root>
    </mxGraphModel>
  </diagram>
</mxfile>
